<svg width="145" height="72" viewBox="0 0 145 72" fill="none" xmlns="http://www.w3.org/2000/svg">
<g clip-path="url(#clip0_22_229)">
<path d="M11.4087 19.504C11.9027 19.504 12.5833 19.51 13.4507 19.5281C14.3181 19.5461 15.2458 19.6183 16.2336 19.7386C17.2215 19.865 18.2214 20.0755 19.2334 20.3763C20.2393 20.6771 21.1549 21.1103 21.9681 21.6758C22.7813 22.2413 23.4439 22.9632 23.9559 23.8476C24.4679 24.732 24.7269 25.8269 24.7269 27.1324C24.7269 29.1838 24.2751 30.8142 23.3716 32.0354C22.4681 33.2567 21.3657 34.1832 20.0526 34.8148C18.7455 35.4525 17.336 35.8556 15.8361 36.0361C14.3302 36.2106 12.999 36.3008 11.8304 36.3008C11.6196 36.3008 11.1557 36.2888 10.451 36.2767C9.7402 36.2587 8.92099 36.1624 7.98131 35.988C7.04163 35.8135 6.05376 35.5308 5.01167 35.1397C4.62014 34.9953 4.24668 34.8269 3.87924 34.6344C3.51782 34.4479 2.82511 34.0508 2.14444 33.4733C1.02405 32.5167 0.361458 31.3977 -0.00598145 30.6638C1.86736 29.262 3.7407 27.8543 5.62006 26.4525C5.62006 26.7714 5.67427 27.1504 5.77667 27.5896C5.8851 28.0348 6.13206 28.4619 6.51757 28.889C6.90911 29.3162 7.48737 29.6771 8.27044 29.9779C9.04748 30.2787 10.1076 30.4472 11.4569 30.4833C13.1194 30.5194 14.4025 30.4472 15.306 30.2727C16.2095 30.0983 16.8721 29.8576 17.2938 29.5568C17.7154 29.256 17.9745 28.9492 18.0648 28.6304C18.1552 28.3115 18.1973 28.0107 18.1973 27.7279C18.1973 27.4091 18.1431 27.0902 18.0407 26.7714C17.9383 26.4525 17.6612 26.1638 17.2155 25.8991C16.7758 25.6344 16.083 25.4118 15.1434 25.2373C14.2037 25.0628 12.9086 24.9545 11.2461 24.9185C9.97512 24.8824 8.69811 24.7079 7.42714 24.389C6.15616 24.0702 5.00565 23.5889 3.97562 22.9332C2.9516 22.2774 2.12035 21.4592 1.48185 20.4666C0.843346 19.4799 0.524095 18.3128 0.524095 16.9713C0.524095 15.4853 0.843346 14.1918 1.48185 13.0789C2.12035 11.9659 2.95763 11.0575 3.99971 10.3476C5.04179 9.64372 6.23446 9.10829 7.58375 8.75936C8.92701 8.40442 10.3426 8.22995 11.8304 8.22995C12.6074 8.22995 13.6495 8.32019 14.9627 8.49466C16.0891 8.64506 17.3781 8.93383 18.8117 9.71591C19.5888 10.137 20.8718 10.9733 22.0464 12.5254C20.3237 14.2039 18.5949 15.8824 16.8721 17.5608C16.8721 16.4298 16.4926 15.5394 15.7337 14.8837C14.9747 14.2279 13.6194 13.9031 11.6738 13.9031C10.2221 13.9031 9.05351 14.1798 8.17406 14.7273C7.28859 15.2747 6.84887 16.0267 6.84887 16.9773C6.84887 17.9278 7.27655 18.5475 8.11985 18.9385C8.96918 19.3295 10.0655 19.5221 11.4087 19.5221V19.504Z" fill="black"/>
<path d="M45.5806 18.9746C45.4059 18.4091 45.183 17.8556 44.918 17.3021C44.653 16.7547 44.2976 16.2674 43.8578 15.8463C43.4181 15.4191 42.876 15.0882 42.2375 14.8416C41.599 14.5949 40.84 14.4686 39.9545 14.4686C38.6474 14.4686 37.5933 14.7333 36.7982 15.2627C36.0031 15.7921 35.3947 16.4539 34.967 17.248C34.5393 18.0421 34.2562 18.9024 34.1177 19.8168C33.9731 20.7373 33.9069 21.5856 33.9069 22.3616C33.9069 23.1377 33.9791 23.986 34.1177 24.9064C34.2562 25.8269 34.5393 26.6811 34.967 27.4753C35.3887 28.2694 36.0031 28.9311 36.7982 29.4606C37.5933 29.99 38.6474 30.2547 39.9545 30.2547C41.6893 30.2547 42.9904 29.7975 43.8518 28.877C44.7192 27.9565 45.3095 26.8977 45.6288 25.6945C47.4599 26.9218 49.2911 28.1491 51.1223 29.3763C50.803 30.1344 50.3031 31.1029 49.5019 32.0775C48.7008 33.0581 47.9238 33.6898 47.5383 33.9606C46.8275 34.4539 46.1227 34.863 45.4179 35.1818C43.7554 35.9218 41.9363 36.2948 39.9545 36.2948C37.5813 36.2587 35.479 35.7654 33.6418 34.8088C32.8648 34.3817 32.0938 33.8462 31.3348 33.1905C30.5758 32.5348 29.9012 31.7166 29.3169 30.7239C28.7326 29.7373 28.2627 28.5521 27.9134 27.1745C27.558 25.7968 27.3833 24.1905 27.3833 22.3496C27.3833 20.5087 27.558 18.9024 27.9134 17.5247C28.2688 16.1471 28.7446 14.9559 29.347 13.9452C29.9494 12.9405 30.618 12.0983 31.3649 11.4305C32.1058 10.7567 32.8828 10.2092 33.7021 9.7881C35.5393 8.80146 37.6475 8.27205 40.0148 8.19986C41.9604 8.27205 43.7615 8.67513 45.424 9.42112C46.1287 9.73997 46.8395 10.1551 47.5443 10.6664C47.8093 10.859 48.6466 11.5147 49.508 12.5976C50.279 13.5662 50.785 14.5227 51.1283 15.3289C49.2791 16.5381 47.4298 17.7473 45.5806 18.9565V18.9746Z" fill="black"/>
<path d="M55.4471 16.7487C55.4471 14.9138 55.8387 13.4699 56.6157 12.4291C57.3928 11.3884 58.2421 10.6003 59.1637 10.0709C60.26 9.43316 61.5009 9.04813 62.8803 8.90375H70.3074V15.3168H65.3198C64.609 15.3168 64.0368 15.4432 63.5971 15.6898C63.1573 15.9365 62.808 16.2012 62.561 16.484C62.2779 16.8389 62.0851 17.2239 61.9767 17.6511V35.7774H55.4532V16.7487H55.4471Z" fill="black"/>
<path d="M73.4337 2.91176C73.4337 2.1357 73.4397 1.55214 73.4578 1.1611C73.4758 0.770053 73.5843 0.493315 73.777 0.312834C73.9698 0.138369 74.289 0.0421123 74.7348 0.0240642C75.1745 0.00601604 75.825 0 76.6744 0C77.5237 0 78.1682 0.0120321 78.614 0.0240642C79.0537 0.0421123 79.3729 0.138369 79.5717 0.312834C79.7645 0.487299 79.8729 0.770053 79.891 1.1611C79.909 1.55214 79.9151 2.1357 79.9151 2.91176C79.9151 3.68783 79.903 4.27139 79.891 4.66243C79.8729 5.05348 79.7645 5.33623 79.5717 5.51069C79.379 5.68516 79.0597 5.78743 78.614 5.79946C78.1682 5.81751 77.5237 5.82353 76.6744 5.82353C75.825 5.82353 75.1805 5.81751 74.7348 5.79946C74.2951 5.78142 73.9758 5.68516 73.777 5.51069C73.5843 5.33623 73.4758 5.05348 73.4578 4.66243C73.4397 4.27139 73.4337 3.68783 73.4337 2.91176ZM79.909 8.89773V35.7714L73.4216 42.8342C73.4216 31.5241 73.4277 20.2139 73.4337 8.89773H79.909Z" fill="black"/>
<path d="M83.4087 22.4158C83.4087 20.1898 83.6376 18.2045 84.1014 16.4539C84.5592 14.7032 85.2941 13.2233 86.306 12.002C87.312 10.7807 88.595 9.84826 90.1551 9.19251C91.7092 8.53677 93.6066 8.2119 95.8354 8.2119C98.1725 8.28409 100.257 8.8135 102.094 9.80013C102.871 10.2213 103.642 10.7747 104.401 11.4425C105.16 12.1163 105.835 12.9525 106.419 13.9572C107.003 14.9619 107.479 16.1591 107.852 17.5368C108.226 18.9144 108.413 20.5207 108.413 22.3616C108.413 24.2025 108.244 25.8088 107.907 27.1865C107.569 28.5642 107.13 29.7493 106.581 30.736C106.033 31.7286 105.413 32.5468 104.726 33.2025C104.033 33.8583 103.323 34.3937 102.576 34.8209C100.877 35.7774 98.9315 36.2707 96.7389 36.3068C95.6426 36.2346 94.5825 36.006 93.5524 35.615C92.667 35.26 91.7634 34.6945 90.8478 33.9184C89.9262 33.1424 89.1672 32.0114 88.5649 30.5254L89.7335 32.0595V44.6751H83.4207V22.4158H83.4087ZM95.8233 14.4686C94.4439 14.4686 93.3476 14.6972 92.5344 15.1544C91.7213 15.6116 91.1129 16.2253 90.7033 16.9833C90.2937 17.7413 90.0286 18.5896 89.9081 19.5281C89.7817 20.4666 89.7214 21.4111 89.7214 22.3616C89.7214 23.1377 89.7937 23.986 89.9322 24.9064C90.0708 25.8269 90.3659 26.6811 90.8057 27.4753C91.2454 28.2694 91.8658 28.9311 92.6609 29.4606C93.456 29.99 94.5102 30.2547 95.8173 30.2547C97.1244 30.2547 98.1785 29.99 98.9737 29.4606C99.7688 28.9311 100.377 28.2694 100.805 27.4753C101.233 26.6811 101.51 25.8209 101.654 24.9064C101.793 23.986 101.865 23.1377 101.865 22.3616C101.865 21.5856 101.793 20.7373 101.654 19.8168C101.51 18.8964 101.233 18.0421 100.805 17.248C100.383 16.4539 99.7688 15.7921 98.9737 15.2627C98.1785 14.7333 97.1244 14.4686 95.8173 14.4686H95.8233Z" fill="black"/>
<path d="M45.7974 50.9078V62.7233C45.9058 63.1444 46.0986 63.5354 46.3817 63.8904C46.6286 64.1731 46.972 64.4378 47.4177 64.6845C47.8575 64.9311 48.4357 65.0575 49.1405 65.0575H53.1703V71.4706H46.6949C45.3155 71.3322 44.0746 70.9412 42.9783 70.3035C42.0567 69.7741 41.2195 68.986 40.4605 67.9452C39.7015 66.9044 39.322 65.4666 39.322 63.6257V44.7473C41.4785 42.2988 43.6349 39.8443 45.7974 37.3957V44.6029H51.8993V50.9078H45.7974Z" fill="#C90202"/>
<path d="M67.6751 72C67.5606 72 67.1631 71.982 66.4764 71.9519C65.7897 71.9158 64.9765 71.7774 64.0489 71.5247C63.1212 71.2721 62.1334 70.881 61.0913 70.3516C60.0492 69.8162 59.0794 69.0521 58.1879 68.0475C57.2964 67.0488 56.5616 65.7914 55.9833 64.2694C55.0075 61.7005 55.0978 59.4566 55.1159 58.6384C55.2123 54.8001 55.1821 47.9298 55.2002 38.9418C57.4591 38.9539 59.7179 38.9659 61.9707 38.984C61.9707 49.3977 61.9768 56.9238 61.9226 58.6384C61.9165 58.8549 61.9225 59.7453 62.1454 60.8884C62.296 61.6584 62.5731 62.3563 62.9827 62.988C63.3923 63.6197 63.9706 64.1491 64.7115 64.5642C65.4524 64.9793 66.4402 65.1898 67.6691 65.1898C68.8979 65.1898 69.8797 64.9853 70.6266 64.5642C71.3675 64.1491 71.9458 63.6197 72.3554 62.988C72.765 62.3563 73.0421 61.6524 73.1927 60.8884C73.3433 60.1243 73.4156 59.3723 73.4156 58.6384V46.131C75.6323 43.8148 77.8489 41.4987 80.0596 39.1825C80.1138 45.6678 80.168 52.1531 80.2222 58.6384C80.2222 60.8703 79.9331 62.7473 79.3548 64.2694C78.7766 65.7854 78.0417 67.0428 77.1502 68.0475C76.2587 69.0461 75.2889 69.8162 74.2468 70.3516C73.2047 70.887 72.2169 71.2781 71.2892 71.5247C70.3616 71.7774 69.5484 71.9158 68.8617 71.9519C68.175 71.982 67.7715 72 67.663 72H67.6751Z" fill="#C90202"/>
<path d="M88.5649 49.8971C89.1672 48.4111 89.9262 47.2741 90.8478 46.4799C91.7694 45.6858 92.667 45.0962 93.5524 44.7052C94.5764 44.2781 95.6366 44.0134 96.7389 43.9111C98.9315 43.9833 100.877 44.5127 102.576 45.4993C103.317 45.9265 104.033 46.4739 104.726 47.1417C105.419 47.8155 106.033 48.6517 106.581 49.6564C107.13 50.6611 107.569 51.8583 107.907 53.236C108.244 54.6136 108.413 56.2199 108.413 58.0608C108.413 59.9017 108.226 61.508 107.858 62.8857C107.491 64.2634 107.009 65.4485 106.425 66.4352C105.841 67.4218 105.166 68.246 104.407 68.9017C103.648 69.5575 102.877 70.0929 102.1 70.52C100.263 71.4706 98.1725 71.9699 95.8414 72.006C93.5042 71.9699 91.4381 71.4766 89.6311 70.52C88.854 70.0929 88.095 69.5575 87.3481 68.9017C86.6072 68.246 85.9446 67.4158 85.3603 66.4111C84.7761 65.4064 84.3062 64.2092 83.9568 62.8315C83.6014 61.4539 83.4268 59.8476 83.4268 58.0067L83.4087 41.2159C85.5169 39.375 87.6312 37.5341 89.7395 35.6992V48.363L88.5709 49.8971H88.5649ZM95.8354 65.9539C97.1425 65.9539 98.1966 65.6892 98.9917 65.1597C99.7868 64.6303 100.395 63.9686 100.823 63.1745C101.251 62.3803 101.528 61.5261 101.672 60.6056C101.811 59.6852 101.883 58.8369 101.883 58.0608C101.883 57.2848 101.811 56.4365 101.672 55.516C101.528 54.5956 101.251 53.7413 100.823 52.9472C100.401 52.1531 99.7868 51.4913 98.9917 50.9619C98.1966 50.4325 97.1425 50.1678 95.8354 50.1678C94.5283 50.1678 93.4741 50.4325 92.679 50.9619C91.8839 51.4913 91.2635 52.1531 90.8237 52.9472C90.384 53.7413 90.0889 54.6016 89.9503 55.516C89.8058 56.4365 89.7395 57.2848 89.7395 58.0608C89.7395 58.8369 89.8118 59.6852 89.9503 60.6056C90.0889 61.5261 90.384 62.3803 90.8237 63.1745C91.2635 63.9686 91.8839 64.6303 92.679 65.1597C93.4741 65.6892 94.5283 65.9539 95.8354 65.9539Z" fill="black"/>
<path d="M136.591 54.6136C136.663 55.1431 136.724 55.6905 136.778 56.256C136.832 56.8215 136.856 57.4231 136.856 58.0608V59.0114H118.285C118.358 59.613 118.442 60.2206 118.55 60.8402C118.659 61.4599 118.833 62.0675 119.08 62.6691C119.472 63.5896 120.068 64.4017 120.888 65.1056C121.701 65.8095 122.833 66.1644 124.285 66.1644C125.737 66.1644 126.869 65.8095 127.682 65.1056C128.495 64.4017 129.098 63.5896 129.489 62.6691C131.393 63.746 133.29 64.8229 135.194 65.8997C134.82 66.6096 134.278 67.4519 133.495 68.2821C133.242 68.5528 132.573 69.2807 131.507 69.9485C130.796 70.3937 130.11 70.7547 129.435 71.0374C127.809 71.6751 126.092 71.988 124.291 71.988C121.918 71.9519 119.815 71.4586 117.978 70.502C117.201 70.0749 116.43 69.5394 115.671 68.8837C114.912 68.2279 114.237 67.4098 113.653 66.4171C113.069 65.4305 112.599 64.2453 112.25 62.8676C111.894 61.49 111.72 59.8837 111.72 58.0428C111.72 56.2019 111.894 54.5956 112.25 53.2179C112.605 51.8402 113.075 50.6491 113.653 49.6384C114.237 48.6337 114.906 47.7914 115.671 47.1237C116.43 46.4559 117.201 45.9024 117.978 45.4813C119.815 44.4947 121.924 43.9652 124.291 43.8931C126.236 43.9652 128.056 44.3683 129.754 45.1143C130.459 45.4332 131.176 45.8483 131.905 46.3596C132.628 46.871 133.302 47.5087 133.923 48.2667C134.543 49.0247 135.091 49.9271 135.567 50.9679C136.043 52.0087 136.392 53.2179 136.603 54.5956L136.591 54.6136ZM129.905 54.6136C129.73 54.0481 129.507 53.4826 129.242 52.9171C128.977 52.3516 128.616 51.8402 128.152 51.383C127.694 50.9258 127.146 50.5588 126.508 50.2941C125.869 50.0294 125.128 49.8971 124.279 49.8971C123.429 49.8971 122.689 50.0294 122.05 50.2941C121.412 50.5588 120.863 50.9198 120.406 51.383C119.948 51.8463 119.574 52.3576 119.291 52.9171C119.008 53.4826 118.797 54.0481 118.653 54.6136H129.899H129.905Z" fill="#C90202"/>
<path d="M143.44 19.6604L119.49 5.8476C117.406 4.64439 114.804 6.1484 114.804 8.5488V36.1745C114.804 38.5749 117.406 40.0789 119.49 38.8757L143.44 25.0628C145.524 23.8596 145.524 20.8576 143.44 19.6604Z" fill="#C90202"/>
<path d="M130.068 21.6999L124.634 18.5655C124.207 18.3189 123.664 18.6257 123.664 19.125V25.3937C123.664 25.893 124.201 26.1999 124.634 25.9532L130.068 22.8189C130.495 22.5722 130.495 21.9525 130.068 21.6999Z" fill="white"/>
</g>
<defs>
<clipPath id="clip0_22_229">
<rect width="145" height="72" fill="white"/>
</clipPath>
</defs>
</svg>
