<svg width="16" height="14" viewBox="0 0 16 14" fill="none" xmlns="http://www.w3.org/2000/svg">
<path d="M1 5.55319C1 4.75675 1.64564 4.11111 2.44208 4.11111V4.11111C2.9883 4.11111 3.48764 3.8025 3.73191 3.31395L4.37037 2.03704C4.68815 1.40147 5.33775 1 6.04833 1H9.95167C10.6623 1 11.3118 1.40147 11.6296 2.03704L12.2681 3.31395C12.5124 3.8025 13.0117 4.11111 13.5579 4.11111V4.11111C14.3544 4.11111 15 4.75675 15 5.55319V9.44444C15 10.3744 15 10.8394 14.8978 11.2209C14.6204 12.2562 13.8117 13.0648 12.7765 13.3422C12.395 13.4444 11.93 13.4444 11 13.4444H5C4.07003 13.4444 3.60504 13.4444 3.22354 13.3422C2.18827 13.0648 1.37962 12.2562 1.10222 11.2209C1 10.8394 1 10.3744 1 9.44445V5.55319Z" stroke="white"/>
<circle cx="7.99978" cy="8.00003" r="2.61111" stroke="white"/>
</svg>
