<svg width="23" height="23" viewBox="0 0 23 23" fill="none" xmlns="http://www.w3.org/2000/svg">
<path d="M7.5625 11C8.39087 11 9.0625 10.1045 9.0625 9C9.0625 7.89551 8.39087 7 7.5625 7C6.73413 7 6.0625 7.89551 6.0625 9C6.0625 10.1045 6.73413 11 7.5625 11Z" fill="#161722"/>
<path d="M16.0625 9C16.0625 10.1045 15.3909 11 14.5625 11C13.7341 11 13.0625 10.1045 13.0625 9C13.0625 7.89551 13.7341 7 14.5625 7C15.3909 7 16.0625 7.89551 16.0625 9Z" fill="#161722"/>
<path d="M11.0625 15.7891C12.5625 15.7891 14.0625 14.7373 14.0625 13.6328C14.0625 12.5283 12.0625 12.5 11.0625 12.5C10.0625 12.5 8.0625 12.5283 8.0625 13.6328C8.0625 14.7373 9.5625 15.7891 11.0625 15.7891Z" fill="#161722"/>
<path fill-rule="evenodd" clip-rule="evenodd" d="M22.0625 11.5C22.0625 17.5752 17.1377 22.5 11.0625 22.5C4.9873 22.5 0.0625 17.5752 0.0625 11.5C0.0625 5.4248 4.9873 0.5 11.0625 0.5C17.1377 0.5 22.0625 5.4248 22.0625 11.5ZM20.0625 11.5C20.0625 16.4705 16.033 20.5 11.0625 20.5C6.09204 20.5 2.0625 16.4705 2.0625 11.5C2.0625 6.52954 6.09204 2.5 11.0625 2.5C16.033 2.5 20.0625 6.52954 20.0625 11.5Z" fill="#161722"/>
</svg>
