<svg width="24" height="24" viewBox="0 0 24 24" fill="none" xmlns="http://www.w3.org/2000/svg">
<path d="M11.9988 1.00268C10.5519 0.993637 9.11766 1.27387 7.77919 1.82712C6.44073 2.38038 5.22469 3.19565 4.20158 4.22566C3.17847 5.25567 2.36867 6.47992 1.81912 7.82741C1.26957 9.17491 0.991224 10.6188 1.00021 12.0755V12.9272C1.00021 15.8639 2.15898 18.6803 4.22161 20.7569C6.28425 22.8334 9.08177 24 11.9988 24H17.9211V22.2965H11.9988C9.53054 22.2965 7.1634 21.3094 5.4181 19.5523C3.6728 17.7952 2.6923 15.4121 2.6923 12.9272V12.0755C2.68557 10.8432 2.92169 9.62179 3.387 8.482C3.85231 7.3422 4.53756 6.30665 5.40309 5.43528C6.26862 4.56391 7.29724 3.87403 8.42939 3.40558C9.56154 2.93713 10.7747 2.69941 11.9988 2.70619C13.2324 2.66341 14.4615 2.87649 15.6099 3.3322C16.7582 3.78791 17.8012 4.47651 18.674 5.35521C19.5468 6.2339 20.2308 7.28391 20.6834 8.44C21.1361 9.59609 21.3477 10.8335 21.3052 12.0755C21.3052 15.1333 20.1208 16.3342 18.2087 16.3342C16.872 16.3342 16.229 15.2355 16.229 13.779V6.96495H14.5369V8.61735C14.2419 8.0945 13.8094 7.66364 13.287 7.37213C12.7646 7.08062 12.1725 6.93973 11.5758 6.96495C10.349 6.96041 9.17053 7.4455 8.29836 8.31398C7.4262 9.18245 6.93146 10.3635 6.92251 11.5985V13.4042C6.93146 14.6392 7.4262 15.8202 8.29836 16.6887C9.17053 17.5572 10.349 18.0423 11.5758 18.0377C12.2813 18.0585 12.9775 17.8713 13.5788 17.4991C14.18 17.1268 14.6601 16.5857 14.9599 15.9424C15.2602 16.5692 15.7298 17.0981 16.3148 17.4687C16.8999 17.8392 17.5768 18.0365 18.268 18.0377C20.8653 18.0377 22.9973 16.3342 22.9973 12.0755C23.0297 10.6124 22.7673 9.158 22.226 7.79986C21.6848 6.44172 20.8758 5.20806 19.848 4.17329C18.8202 3.13852 17.5948 2.32411 16.2457 1.77918C14.8967 1.23425 13.452 0.970109 11.9988 1.00268ZM14.5369 13.4042C14.5369 14.1948 14.2249 14.9531 13.6696 15.5122C13.1143 16.0713 12.3611 16.3853 11.5758 16.3853C10.7904 16.3853 10.0372 16.0713 9.4819 15.5122C8.92658 14.9531 8.6146 14.1948 8.6146 13.4042V11.5985C8.6146 10.8078 8.92658 10.0496 9.4819 9.4905C10.0372 8.93143 10.7904 8.61735 11.5758 8.61735C12.3611 8.61735 13.1143 8.93143 13.6696 9.4905C14.2249 10.0496 14.5369 10.8078 14.5369 11.5985V13.4042Z" fill="white" fill-opacity="0.5"/>
</svg>
