<svg width="21" height="21" viewBox="0 0 21 21" fill="none" xmlns="http://www.w3.org/2000/svg">
<path d="M9.62533 11.0834L8.41699 9.89587C8.26421 9.74309 8.07338 9.6667 7.84449 9.6667C7.6156 9.6667 7.41755 9.75003 7.25033 9.9167C7.09755 10.0695 7.02116 10.2639 7.02116 10.5C7.02116 10.7361 7.09755 10.9306 7.25033 11.0834L9.04199 12.875C9.20866 13.0417 9.4031 13.125 9.62533 13.125C9.84755 13.125 10.042 13.0417 10.2087 12.875L13.7503 9.33337C13.917 9.1667 13.9967 8.97225 13.9895 8.75003C13.9823 8.52781 13.9025 8.33337 13.7503 8.1667C13.5837 8.00003 13.3859 7.91337 13.157 7.9067C12.9281 7.90003 12.73 7.97975 12.5628 8.14587L9.62533 11.0834ZM7.29199 18.625L6.08366 16.5834L3.79199 16.0834C3.58366 16.0417 3.41699 15.9342 3.29199 15.7609C3.16699 15.5875 3.11838 15.3964 3.14616 15.1875L3.37533 12.8334L1.81283 11.0417C1.67394 10.8889 1.60449 10.7084 1.60449 10.5C1.60449 10.2917 1.67394 10.1111 1.81283 9.95837L3.37533 8.1667L3.14616 5.81253C3.11838 5.6042 3.16699 5.41309 3.29199 5.2392C3.41699 5.06531 3.58366 4.95781 3.79199 4.9167L6.08366 4.4167L7.29199 2.37503C7.4031 2.19448 7.55588 2.07281 7.75032 2.01003C7.94477 1.94725 8.13921 1.95781 8.33366 2.0417L10.5003 2.95837L12.667 2.0417C12.8614 1.95837 13.0559 1.94781 13.2503 2.01003C13.4448 2.07225 13.5975 2.19392 13.7087 2.37503L14.917 4.4167L17.2087 4.9167C17.417 4.95837 17.5837 5.06614 17.7087 5.24003C17.8337 5.41392 17.8823 5.60475 17.8545 5.81253L17.6253 8.1667L19.1878 9.95837C19.3267 10.1111 19.3962 10.2917 19.3962 10.5C19.3962 10.7084 19.3267 10.8889 19.1878 11.0417L17.6253 12.8334L17.8545 15.1875C17.8823 15.3959 17.8337 15.587 17.7087 15.7609C17.5837 15.9348 17.417 16.0423 17.2087 16.0834L14.917 16.5834L13.7087 18.625C13.5975 18.8056 13.4448 18.9273 13.2503 18.99C13.0559 19.0528 12.8614 19.0423 12.667 18.9584L10.5003 18.0417L8.33366 18.9584C8.13921 19.0417 7.94477 19.0523 7.75032 18.99C7.55588 18.9278 7.4031 18.8061 7.29199 18.625Z" fill="white"/>
</svg>
