<svg width="11" height="13" viewBox="0 0 11 13" fill="none" xmlns="http://www.w3.org/2000/svg">
<path d="M6.32942 3.25699C7.391 3.86361 8.14613 4.29583 8.68848 4.66918C9.23457 5.04511 9.47042 5.30031 9.58079 5.51447C9.89947 6.13285 9.89947 6.86716 9.58079 7.48554C9.47042 7.6997 9.23457 7.9549 8.68848 8.33082C8.14613 8.70418 7.391 9.1364 6.32942 9.74302C5.28181 10.3416 4.53651 10.7668 3.94717 11.041C3.35428 11.3168 3.01814 11.3902 2.77855 11.3775C2.08844 11.3408 1.45793 10.9749 1.08375 10.3939C0.953843 10.1922 0.850794 9.86394 0.796103 9.21234C0.741739 8.56463 0.741117 7.70658 0.741117 6.5C0.741117 5.29342 0.741739 4.43537 0.796103 3.78766C0.850794 3.13606 0.953844 2.8078 1.08375 2.60608C1.45793 2.02506 2.08844 1.65916 2.77855 1.62255C3.01814 1.60984 3.35428 1.68323 3.94717 1.95903C4.53651 2.23318 5.28181 2.65836 6.32942 3.25699Z" stroke="white" stroke-width="1.48223"/>
</svg>
