<svg width="24" height="24" viewBox="0 0 24 24" fill="none" xmlns="http://www.w3.org/2000/svg">
<path d="M21.0371 15.4459L16.3261 13.3349L16.3131 13.3289C16.0685 13.2243 15.8017 13.1823 15.5369 13.2068C15.272 13.2312 15.0174 13.3213 14.7961 13.4689C14.77 13.4861 14.745 13.5048 14.7211 13.5249L12.2871 15.5999C10.7451 14.8509 9.15306 13.2709 8.40405 11.7489L10.4821 9.27787C10.5021 9.25287 10.5211 9.22787 10.5391 9.20087C10.6835 8.98017 10.7711 8.72718 10.7942 8.46443C10.8172 8.20168 10.7749 7.93731 10.6711 7.69485V7.68285L8.55406 2.96381C8.41679 2.64707 8.18078 2.38322 7.88124 2.21164C7.5817 2.04006 7.2347 1.96996 6.89204 2.0118C5.537 2.19011 4.2932 2.85557 3.39295 3.88391C2.4927 4.91225 1.99756 6.23313 2.00001 7.59985C2.00001 15.5399 8.46005 22 16.4001 22C17.7668 22.0024 19.0877 21.5073 20.116 20.607C21.1444 19.7068 21.8098 18.463 21.9882 17.1079C22.0301 16.7654 21.9601 16.4185 21.7887 16.119C21.6173 15.8194 21.3537 15.5834 21.0371 15.4459ZM16.4001 20.4C13.0065 20.3963 9.75285 19.0465 7.35317 16.6468C4.95349 14.2471 3.60373 10.9935 3.60002 7.59985C3.59626 6.62333 3.94807 5.67883 4.58976 4.94273C5.23145 4.20664 6.11914 3.72928 7.08705 3.59981C7.08665 3.6038 7.08665 3.60782 7.08705 3.61181L9.18706 8.31186L7.12005 10.7859C7.09907 10.81 7.08001 10.8358 7.06305 10.8629C6.91256 11.0938 6.82428 11.3597 6.80676 11.6348C6.78924 11.9098 6.84307 12.1848 6.96304 12.4329C7.86905 14.2859 9.73606 16.1389 11.6091 17.0439C11.859 17.1628 12.1356 17.2148 12.4116 17.1948C12.6877 17.1748 12.9538 17.0836 13.1841 16.9299C13.2098 16.9126 13.2345 16.894 13.2581 16.8739L15.6891 14.7999L20.3891 16.9049H20.4001C20.2723 17.8742 19.7956 18.7637 19.0594 19.407C18.3232 20.0503 17.3778 20.4033 16.4001 20.4Z" fill="white" fill-opacity="0.5"/>
</svg>
