<svg width="30" height="30" viewBox="0 0 30 30" fill="none" xmlns="http://www.w3.org/2000/svg">
<path d="M23.6746 6.7748L17.2121 3.0373C15.9746 2.3248 14.0371 2.3248 12.7996 3.0373L6.27461 6.7998C3.68711 8.5498 3.53711 8.8123 3.53711 11.5998V18.3873C3.53711 21.1748 3.68711 21.4498 6.32461 23.2248L12.7871 26.9623C13.4121 27.3248 14.2121 27.4998 14.9996 27.4998C15.7871 27.4998 16.5871 27.3248 17.1996 26.9623L23.7246 23.1998C26.3121 21.4498 26.4621 21.1873 26.4621 18.3998V11.5998C26.4621 8.8123 26.3121 8.5498 23.6746 6.7748ZM14.9996 19.0623C12.7621 19.0623 10.9371 17.2373 10.9371 14.9998C10.9371 12.7623 12.7621 10.9373 14.9996 10.9373C17.2371 10.9373 19.0621 12.7623 19.0621 14.9998C19.0621 17.2373 17.2371 19.0623 14.9996 19.0623Z" fill="white"/>
</svg>
