<svg width="444" height="172" viewBox="0 0 444 172" fill="none" xmlns="http://www.w3.org/2000/svg">
<g filter="url(#filter0_d_2918_1460)">
<path d="M291.845 85.5484C293.482 85.5484 295.739 85.5678 298.615 85.6263C301.49 85.6848 304.566 85.9188 307.841 86.3088C311.117 86.7184 314.432 87.4011 317.787 88.3762C321.122 89.3514 324.158 90.7556 326.854 92.5889C329.55 94.4221 331.747 96.7625 333.444 99.6294C335.142 102.496 336 106.046 336 110.278C336 116.928 334.502 122.214 331.507 126.173C328.511 130.132 324.856 133.135 320.503 135.183C316.169 137.25 311.496 138.557 306.523 139.142C301.53 139.708 297.117 140 293.243 140C292.544 140 291.006 139.961 288.669 139.922C286.313 139.863 283.597 139.551 280.481 138.986C277.366 138.42 274.09 137.504 270.635 136.236C269.337 135.768 268.099 135.222 266.881 134.598C265.683 133.993 263.386 132.706 261.129 130.834C257.415 127.733 255.218 124.105 254 121.726C260.211 117.182 266.422 112.618 272.652 108.074C272.652 109.108 272.832 110.336 273.172 111.76C273.531 113.203 274.35 114.588 275.628 115.973C276.926 117.357 278.844 118.527 281.44 119.503C284.016 120.478 287.531 121.024 292.005 121.141C297.517 121.258 301.77 121.024 304.766 120.458C307.761 119.893 309.958 119.113 311.356 118.137C312.754 117.162 313.613 116.168 313.913 115.134C314.212 114.1 314.352 113.125 314.352 112.209C314.352 111.175 314.172 110.141 313.833 109.108C313.493 108.074 312.574 107.138 311.096 106.28C309.639 105.422 307.342 104.7 304.227 104.134C301.111 103.569 296.817 103.218 291.305 103.101C287.092 102.984 282.858 102.418 278.644 101.385C274.43 100.351 270.615 98.7907 267.2 96.6649C263.805 94.5391 261.05 91.8868 258.933 88.6688C256.816 85.4704 255.757 81.6867 255.757 77.3376C255.757 72.5204 256.816 68.3274 258.933 64.7193C261.05 61.1113 263.825 58.1663 267.28 55.865C270.735 53.5832 274.69 51.8474 279.163 50.7163C283.617 49.5656 288.31 49 293.243 49C295.819 49 299.274 49.2927 303.627 49.8582C307.362 50.3458 311.636 51.282 316.389 53.8174C318.965 55.1826 323.219 57.8933 327.113 62.925C321.401 68.3663 315.67 73.8075 309.958 79.2488C309.958 75.5823 308.7 72.696 306.184 70.5702C303.667 68.4444 299.174 67.3912 292.723 67.3912C287.91 67.3912 284.036 68.2883 281.12 70.0631C278.184 71.8378 276.727 74.2757 276.727 77.3571C276.727 80.4385 278.145 82.4473 280.941 83.715C283.757 84.9827 287.391 85.6067 291.845 85.6067V85.5484Z" fill="black"/>
</g>
<g filter="url(#filter1_d_2918_1460)">
<path d="M4 76.6889C4 70.6804 5.29093 65.9523 7.85316 62.5442C10.4154 59.1361 13.2159 56.5555 16.2548 54.8219C19.8698 52.7337 23.9617 51.4728 28.5102 51H53V72.0003H36.5545C34.2107 72.0003 32.3236 72.414 30.8737 73.2217C29.4237 74.0294 28.2718 74.8961 27.4574 75.822C26.5239 76.9843 25.8884 78.2452 25.5308 79.6439V139H4.01988V76.7086L4 76.6889Z" fill="black"/>
</g>
<g filter="url(#filter2_d_2918_1460)">
<path d="M222.041 34.4504C222.041 31.9316 222.061 30.0376 222.122 28.7685C222.183 27.4993 222.551 26.6011 223.204 26.0153C223.857 25.4491 224.939 25.1368 226.449 25.0782C227.939 25.0196 230.143 25 233.02 25C235.898 25 238.082 25.0391 239.592 25.0782C241.082 25.1368 242.164 25.4491 242.837 26.0153C243.49 26.5816 243.858 27.4993 243.919 28.7685C243.98 30.0376 244 31.9316 244 34.4504C244 36.9691 243.96 38.8629 243.919 40.132C243.858 41.4012 243.49 42.3189 242.837 42.8851C242.184 43.4514 241.102 43.7833 239.592 43.8223C238.082 43.8809 235.898 43.9005 233.02 43.9005C230.143 43.9005 227.959 43.8809 226.449 43.8223C224.959 43.7637 223.877 43.4514 223.204 42.8851C222.551 42.3189 222.183 41.4012 222.122 40.132C222.061 38.8629 222.041 36.9691 222.041 34.4504ZM243.98 53.8778V141.077L222 164C222 127.293 222.02 90.5852 222.041 53.8583H243.98V53.8778Z" fill="black"/>
</g>
<path d="M438.824 86.6571L359.518 41.3881C352.617 37.4448 344 42.3739 344 50.2408V140.759C344 148.626 352.617 153.555 359.518 149.612L438.824 104.343C445.725 100.399 445.725 90.5609 438.824 86.6373V86.6571Z" fill="#4C75A3"/>
<path d="M393.95 93.2242L376.173 83.276C374.774 82.4931 373 83.4668 373 85.0517V104.948C373 106.533 374.754 107.507 376.173 106.724L393.95 96.7758C395.35 95.9929 395.35 94.0262 393.95 93.2242Z" fill="white"/>
<g filter="url(#filter3_d_2918_1460)">
<path d="M114.87 57.05L111.39 61.98C105.88 57.05 98.485 54.875 90.075 54.875C72.385 54.875 61.22 64.3 61.22 86.195V101.855C61.22 123.75 72.385 133.175 90.075 133.175C98.485 133.175 105.88 131 111.39 126.07L114.87 131H129.225V57.05H114.87ZM95.005 113.455C87.755 113.455 82.97 109.395 82.97 101.275V86.775C82.97 78.655 87.755 74.595 95.005 74.595C102.4 74.595 107.475 78.51 107.475 86.34V101.71C107.475 109.54 102.255 113.455 95.005 113.455ZM195.583 57.05L192.103 61.98C186.593 57.05 179.198 54.875 170.788 54.875C153.098 54.875 141.933 64.3 141.933 86.195V101.855C141.933 123.75 153.098 133.175 170.788 133.175C179.198 133.175 186.593 131 192.103 126.07L195.583 131H209.938V57.05H195.583ZM175.718 113.455C168.468 113.455 163.683 109.395 163.683 101.275V86.775C163.683 78.655 168.468 74.595 175.718 74.595C183.113 74.595 188.188 78.51 188.188 86.34V101.71C188.188 109.54 182.968 113.455 175.718 113.455Z" fill="black"/>
</g>
<defs>
<filter id="filter0_d_2918_1460" x="250" y="49" width="90" height="99" filterUnits="userSpaceOnUse" color-interpolation-filters="sRGB">
<feFlood flood-opacity="0" result="BackgroundImageFix"/>
<feColorMatrix in="SourceAlpha" type="matrix" values="0 0 0 0 0 0 0 0 0 0 0 0 0 0 0 0 0 0 127 0" result="hardAlpha"/>
<feOffset dy="4"/>
<feGaussianBlur stdDeviation="2"/>
<feComposite in2="hardAlpha" operator="out"/>
<feColorMatrix type="matrix" values="0 0 0 0 0 0 0 0 0 0 0 0 0 0 0 0 0 0 0.25 0"/>
<feBlend mode="normal" in2="BackgroundImageFix" result="effect1_dropShadow_2918_1460"/>
<feBlend mode="normal" in="SourceGraphic" in2="effect1_dropShadow_2918_1460" result="shape"/>
</filter>
<filter id="filter1_d_2918_1460" x="0" y="51" width="57" height="96" filterUnits="userSpaceOnUse" color-interpolation-filters="sRGB">
<feFlood flood-opacity="0" result="BackgroundImageFix"/>
<feColorMatrix in="SourceAlpha" type="matrix" values="0 0 0 0 0 0 0 0 0 0 0 0 0 0 0 0 0 0 127 0" result="hardAlpha"/>
<feOffset dy="4"/>
<feGaussianBlur stdDeviation="2"/>
<feComposite in2="hardAlpha" operator="out"/>
<feColorMatrix type="matrix" values="0 0 0 0 0 0 0 0 0 0 0 0 0 0 0 0 0 0 0.25 0"/>
<feBlend mode="normal" in2="BackgroundImageFix" result="effect1_dropShadow_2918_1460"/>
<feBlend mode="normal" in="SourceGraphic" in2="effect1_dropShadow_2918_1460" result="shape"/>
</filter>
<filter id="filter2_d_2918_1460" x="218" y="25" width="30" height="147" filterUnits="userSpaceOnUse" color-interpolation-filters="sRGB">
<feFlood flood-opacity="0" result="BackgroundImageFix"/>
<feColorMatrix in="SourceAlpha" type="matrix" values="0 0 0 0 0 0 0 0 0 0 0 0 0 0 0 0 0 0 127 0" result="hardAlpha"/>
<feOffset dy="4"/>
<feGaussianBlur stdDeviation="2"/>
<feComposite in2="hardAlpha" operator="out"/>
<feColorMatrix type="matrix" values="0 0 0 0 0 0 0 0 0 0 0 0 0 0 0 0 0 0 0.25 0"/>
<feBlend mode="normal" in2="BackgroundImageFix" result="effect1_dropShadow_2918_1460"/>
<feBlend mode="normal" in="SourceGraphic" in2="effect1_dropShadow_2918_1460" result="shape"/>
</filter>
<filter id="filter3_d_2918_1460" x="57.22" y="54.875" width="156.718" height="86.3" filterUnits="userSpaceOnUse" color-interpolation-filters="sRGB">
<feFlood flood-opacity="0" result="BackgroundImageFix"/>
<feColorMatrix in="SourceAlpha" type="matrix" values="0 0 0 0 0 0 0 0 0 0 0 0 0 0 0 0 0 0 127 0" result="hardAlpha"/>
<feOffset dy="4"/>
<feGaussianBlur stdDeviation="2"/>
<feComposite in2="hardAlpha" operator="out"/>
<feColorMatrix type="matrix" values="0 0 0 0 0 0 0 0 0 0 0 0 0 0 0 0 0 0 0.25 0"/>
<feBlend mode="normal" in2="BackgroundImageFix" result="effect1_dropShadow_2918_1460"/>
<feBlend mode="normal" in="SourceGraphic" in2="effect1_dropShadow_2918_1460" result="shape"/>
</filter>
</defs>
</svg>
