<svg width="1024" height="1024" viewBox="0 0 1024 1024" fill="none" xmlns="http://www.w3.org/2000/svg">
<rect width="1024" height="1024" fill="#4C75A3"/>
<path fill-rule="evenodd" clip-rule="evenodd" d="M306.317 635.688C365.382 590.366 437.751 565.8 512.2 565.8C586.65 565.8 659.019 590.366 718.083 635.688C777.148 681.01 819.607 744.555 838.876 816.468C843.307 833.005 833.493 850.003 816.956 854.435C800.418 858.866 783.42 849.052 778.989 832.514C763.252 773.785 728.577 721.889 680.34 684.876C632.103 647.863 573.001 627.8 512.2 627.8C451.399 627.8 392.297 647.862 344.06 684.876C295.823 721.889 261.148 773.785 245.411 832.514C240.98 849.052 223.982 858.866 207.444 854.434C190.907 850.003 181.093 833.005 185.524 816.467C204.793 744.555 247.252 681.01 306.317 635.688Z" fill="white"/>
<path fill-rule="evenodd" clip-rule="evenodd" d="M511.8 193C444.09 193 389.2 247.89 389.2 315.6C389.2 383.31 444.09 438.2 511.8 438.2C579.51 438.2 634.4 383.31 634.4 315.6C634.4 247.89 579.51 193 511.8 193ZM327.2 315.6C327.2 213.648 409.848 131 511.8 131C613.752 131 696.4 213.648 696.4 315.6C696.4 417.552 613.752 500.2 511.8 500.2C409.848 500.2 327.2 417.552 327.2 315.6Z" fill="white"/>
</svg>
