<svg width="376" height="364" viewBox="0 0 376 364" fill="none" xmlns="http://www.w3.org/2000/svg">
<g clip-path="url(#clip0_52_434)">
<path d="M376 0H0V364H376V0Z" fill="white"/>
<path fill-rule="evenodd" clip-rule="evenodd" d="M112.475 225.967C134.163 209.857 160.736 201.124 188.072 201.124C215.41 201.124 241.983 209.857 263.67 225.967C285.358 242.078 300.948 264.666 308.024 290.229C309.651 296.107 306.047 302.149 299.975 303.725C293.903 305.3 287.661 301.811 286.034 295.933C280.256 275.056 267.523 256.609 249.811 243.452C232.099 230.295 210.398 223.163 188.072 223.163C165.747 223.163 144.046 230.295 126.334 243.452C108.622 256.609 95.8893 275.056 90.1109 295.933C88.4839 301.811 82.2424 305.3 76.1699 303.725C70.0977 302.15 66.4941 296.107 68.1211 290.228C75.1965 264.666 90.7869 242.078 112.475 225.967Z" fill="#EE22AA"/>
<path fill-rule="evenodd" clip-rule="evenodd" d="M187.927 68.6055C163.065 68.6055 142.91 88.1171 142.91 112.186C142.91 136.255 163.065 155.766 187.927 155.766C212.79 155.766 232.945 136.255 232.945 112.186C232.945 88.1171 212.79 68.6055 187.927 68.6055ZM120.145 112.186C120.145 75.9452 150.492 46.5664 187.927 46.5664C225.363 46.5664 255.71 75.9452 255.71 112.186C255.71 148.427 225.363 177.805 187.927 177.805C150.492 177.805 120.145 148.427 120.145 112.186Z" fill="white"/>
<path fill-rule="evenodd" clip-rule="evenodd" d="M187.927 68.6055C163.065 68.6055 142.91 88.1171 142.91 112.186C142.91 136.255 163.065 155.766 187.927 155.766C212.79 155.766 232.945 136.255 232.945 112.186C232.945 88.1171 212.79 68.6055 187.927 68.6055ZM120.145 112.186C120.145 75.9452 150.492 46.5664 187.927 46.5664C225.363 46.5664 255.71 75.9452 255.71 112.186C255.71 148.427 225.363 177.805 187.927 177.805C150.492 177.805 120.145 148.427 120.145 112.186Z" fill="#AF00FD"/>
</g>
<defs>
<clipPath id="clip0_52_434">
<rect width="376" height="364" fill="white"/>
</clipPath>
</defs>
</svg>
