<svg width="43" height="28" viewBox="0 0 43 28" fill="none" xmlns="http://www.w3.org/2000/svg">
<path d="M35.0667 0.417725H15.7111L3.93333 7.20885C-1.31111 10.2271 -1.31111 17.7728 3.93333 20.7911L13.8889 26.5391C15.0889 27.2271 16.4444 27.5822 17.8222 27.5822H35.0667C39.4 27.5822 42.9111 24.0757 42.9111 19.748V8.25193C42.9111 3.92425 39.4 0.417725 35.0667 0.417725ZM33.8 19.2598C33.3778 19.7258 32.9556 20.1475 32.4667 20.547C32.1111 20.8355 31.8889 20.8355 31.5333 20.547C31.0222 20.1475 30.5778 19.6814 30.1333 19.2154C29.3333 18.4386 28.5333 17.6397 27.7778 16.8407C27.5778 16.641 27.4889 16.6632 27.3111 16.8407C26.2222 17.9282 25.1333 19.0156 24.0444 20.1031C23.8667 20.2806 23.6667 20.4582 23.4444 20.6135C23.1778 20.8133 22.9333 20.8133 22.6889 20.5914C22.0889 20.1031 21.5333 19.5483 21.0222 18.9491C20.7111 18.5718 20.7111 18.3498 21.0444 17.9504C21.5111 17.3955 22.0222 16.9073 22.5333 16.419C23.2667 15.6867 24.0222 14.9321 24.7556 14.1997C24.9111 14.0444 24.8889 13.9556 24.7556 13.8224C23.5778 12.6462 22.3778 11.4921 21.2444 10.2715C21.1556 10.2049 21.1111 10.1384 21.0444 10.0718C20.6889 9.6501 20.6889 9.42817 21.0444 9.0065C21.5111 8.45167 22.0444 7.94122 22.6 7.45297C22.9333 7.18665 23.1556 7.16446 23.5111 7.43078C23.9333 7.74148 24.2889 8.11877 24.6444 8.49605C25.5556 9.38378 26.4444 10.2937 27.3333 11.1814C27.4889 11.3368 27.5556 11.3368 27.7111 11.1814C28.8667 10.0274 30.0444 8.85114 31.2222 7.71929C31.8889 7.07569 32.0667 7.07569 32.7556 7.71929C33.2222 8.14096 33.6667 8.58483 34.0667 9.07308C34.1778 9.22843 34.2667 9.38378 34.2667 9.56133C34.2667 9.73887 34.1556 9.89423 34.0444 10.0274C33.7111 10.4047 33.3778 10.7598 33.0222 11.1149C32.1333 12.0248 31.2222 12.9125 30.3333 13.8002C30.1778 13.9556 30.1778 14.0222 30.3333 14.1775C31.4889 15.3316 32.6444 16.4634 33.7778 17.6397C34.4889 18.372 34.4667 18.5274 33.8 19.2598Z" fill="white"/>
</svg>
