<?xml version="1.0" encoding="utf-8"?>
<!-- Generator: Adobe Illustrator 27.1.0, SVG Export Plug-In . SVG Version: 6.00 Build 0)  -->
<!DOCTYPE svg PUBLIC "-//W3C//DTD SVG 1.1//EN" "http://www.w3.org/Graphics/SVG/1.1/DTD/svg11.dtd">
<svg version="1.1" id="Capa_1" xmlns="http://www.w3.org/2000/svg" xmlns:xlink="http://www.w3.org/1999/xlink" x="0px" y="0px"
	 viewBox="0 0 200 200" style="enable-background:new 0 0 200 200;" xml:space="preserve">
<g>
	<g id="Layer_7">
		<path d="M172.13,141.76c2.9,9.39-2.91,20.87-14.16,26.86c-12.4,6.59-26.67,4-31.87-5.79c-5.2-9.79,0.63-23.07,13.03-29.66
			c6.33-3.36,13.14-4.32,18.99-3.17l-0.28-102.7L75.1,41.75l-0.01,117.58c2.85,9.38-2.96,20.82-14.19,26.78
			c-12.4,6.59-26.67,4-31.87-5.79c-5.2-9.79,0.63-23.07,13.03-29.66c6.34-3.37,13.16-4.33,19.01-3.16L61.09,29.7l111.4-19.45
			L172.13,141.76z"/>
	</g>
</g>
</svg>
