<svg width="24" height="24" viewBox="0 0 24 24" fill="none" xmlns="http://www.w3.org/2000/svg">
<path d="M7.5 12.0345L12.3333 15.4179L17.1667 12.0345" stroke="white" stroke-opacity="0.5" stroke-width="1.25" stroke-linecap="round" stroke-linejoin="round"/>
<path d="M2.66699 19.7679V9.26213C2.66699 8.92827 2.75344 8.6001 2.91793 8.30958C3.08242 8.01905 3.31934 7.77607 3.60563 7.6043L11.339 2.9643C11.6394 2.78402 11.9833 2.68878 12.3337 2.68878C12.6841 2.68878 13.0279 2.78402 13.3284 2.9643L21.0617 7.6043C21.348 7.77607 21.5849 8.01905 21.7494 8.30958C21.9139 8.6001 22.0003 8.92827 22.0003 9.26213V19.7679C22.0003 20.2806 21.7966 20.7724 21.4341 21.1349C21.0715 21.4975 20.5797 21.7012 20.067 21.7012H4.60033C4.08757 21.7012 3.59582 21.4975 3.23325 21.1349C2.87068 20.7724 2.66699 20.2806 2.66699 19.7679Z" stroke="white" stroke-opacity="0.5" stroke-width="1.25"/>
</svg>
