<svg width="19" height="20" viewBox="0 0 19 20" fill="none" xmlns="http://www.w3.org/2000/svg">
<circle cx="9" cy="5" r="4" stroke="#ADADAD" stroke-width="1.5" stroke-linecap="round"/>
<path fill-rule="evenodd" clip-rule="evenodd" d="M12.2759 13C10.8972 12.5613 9.3896 12.4073 7.90666 12.5538C6.26616 12.7157 4.71472 13.2397 3.45048 14.0712C2.18613 14.9028 1.25374 16.0137 0.801744 17.2789C0.70884 17.5389 0.844333 17.825 1.10438 17.9179C1.36442 18.0108 1.65054 17.8754 1.74345 17.6153C2.11048 16.588 2.88515 15.64 4 14.9067C5.11495 14.1734 6.508 13.6967 8.00492 13.5489C8.55477 13.4946 9.10756 13.4858 9.65362 13.521C10.009 13.1974 10.4814 13 11 13L12.2759 13Z" fill="#ADADAD"/>
<path d="M7.90666 12.5538L7.93123 12.8025L7.90666 12.5538ZM12.2759 13V13.25L12.3517 12.7618L12.2759 13ZM3.45048 14.0712L3.58786 14.2801H3.58786L3.45048 14.0712ZM0.801744 17.2789L1.03717 17.363H1.03717L0.801744 17.2789ZM1.10438 17.9179L1.18849 17.6825L1.10438 17.9179ZM1.74345 17.6153L1.97888 17.6994L1.74345 17.6153ZM4 14.9067L3.86262 14.6978L4 14.9067ZM8.00492 13.5489L7.98036 13.3001L8.00492 13.5489ZM9.65362 13.521L9.63752 13.7705L9.74347 13.7774L9.82197 13.7059L9.65362 13.521ZM11 13V12.75V13ZM7.93123 12.8025C9.38138 12.6594 10.8548 12.8102 12.2001 13.2382L12.3517 12.7618C10.9397 12.3125 9.39783 12.1553 7.8821 12.305L7.93123 12.8025ZM3.58786 14.2801C4.81477 13.4731 6.32662 12.961 7.93123 12.8025L7.8821 12.305C6.20571 12.4705 4.61466 13.0063 3.3131 13.8624L3.58786 14.2801ZM1.03717 17.363C1.46792 16.1573 2.36086 15.0871 3.58786 14.2801L3.3131 13.8624C2.01139 14.7185 1.03957 15.8701 0.566318 17.1948L1.03717 17.363ZM1.18849 17.6825C1.05847 17.6361 0.990718 17.493 1.03717 17.363L0.566318 17.1948C0.426961 17.5848 0.630201 18.014 1.02027 18.1534L1.18849 17.6825ZM1.50802 17.5312C1.46157 17.6612 1.31851 17.729 1.18849 17.6825L1.02027 18.1534C1.41034 18.2927 1.83952 18.0895 1.97888 17.6994L1.50802 17.5312ZM3.86262 14.6978C2.71037 15.4557 1.89629 16.4444 1.50802 17.5312L1.97888 17.6994C2.32468 16.7315 3.05993 15.8242 4.13738 15.1156L3.86262 14.6978ZM7.98036 13.3001C6.44753 13.4515 5.01489 13.9399 3.86262 14.6978L4.13738 15.1156C5.21502 14.4068 6.56846 13.942 8.02949 13.7977L7.98036 13.3001ZM9.66972 13.2716C9.11022 13.2355 8.54383 13.2445 7.98036 13.3001L8.02949 13.7977C8.56572 13.7448 9.1049 13.7362 9.63752 13.7705L9.66972 13.2716ZM9.82197 13.7059C10.1331 13.4225 10.5461 13.25 11 13.25V12.75C10.4168 12.75 9.88486 12.9722 9.48527 13.3362L9.82197 13.7059ZM11 13.25L12.2759 13.25V12.75L11 12.75V13.25Z" fill="#ADADAD"/>
<path d="M14 11L14 19" stroke="#ADADAD" stroke-width="1.5" stroke-linecap="round"/>
<path d="M18 15L10 15" stroke="#ADADAD" stroke-width="1.5" stroke-linecap="round"/>
</svg>
