<svg width="22" height="22" viewBox="0 0 22 22" fill="none" xmlns="http://www.w3.org/2000/svg">
<path fill-rule="evenodd" clip-rule="evenodd" d="M9.12182 11.3329L3.52982 9.46885C1.17661 8.68445 0 8.29225 0 7.57149C0 6.85073 1.17661 6.45853 3.52982 5.67412L18.7325 0.60656C20.3883 0.0546298 21.2162 -0.221335 21.6532 0.215681C22.0902 0.652697 21.8143 1.48059 21.2623 3.13638L16.1948 18.3391C15.4104 20.6923 15.0182 21.8689 14.2974 21.8689C13.5766 21.8689 13.1844 20.6923 12.4 18.3391L10.536 12.7471L16.3761 6.90695C16.7667 6.51643 16.7667 5.88327 16.3761 5.49274C15.9856 5.10222 15.3525 5.10222 14.9619 5.49274L9.12182 11.3329Z" fill="white"/>
</svg>
