<svg width="35" height="34" viewBox="0 0 35 34" fill="none" xmlns="http://www.w3.org/2000/svg">
<path d="M17.9778 0C8.57779 0 0.955566 7.61227 0.955566 17C0.955566 26.3877 8.57779 34 17.9778 34C27.3778 34 35 26.3877 35 17C35 7.61227 27.3778 0 17.9778 0ZM27.4 11.4073C23.7556 15.9569 20.0889 20.5287 16.4444 25.0783C15.6 26.1214 14.2 26.188 13.2889 25.2115C11.6889 23.436 10.1111 21.6606 8.53334 19.8629C7.77779 18.9974 7.86668 17.8211 8.6889 17.0888C9.4889 16.4008 10.8 16.4452 11.5333 17.2663C12.6 18.4204 13.6445 19.6188 14.7111 20.8394C15.9111 19.3525 17.0889 17.8655 18.2889 16.3786C20.2667 13.893 22.2445 11.4295 24.2445 8.94386C25.0222 7.96736 26.3111 7.81201 27.2444 8.54439C28.1111 9.25457 28.1778 10.4308 27.4 11.4073Z" fill="#4C75A3"/>
</svg>
