<svg width="12" height="13" viewBox="0 0 12 13" fill="none" xmlns="http://www.w3.org/2000/svg">
<path d="M2.66667 0.333496C2.29848 0.333496 2 0.631973 2 1.00016V1.66683H1.33333C0.596954 1.66683 0 2.26378 0 3.00016V4.3335H12V3.00016C12 2.26378 11.403 1.66683 10.6667 1.66683H10V1.00016C10 0.631973 9.70152 0.333496 9.33333 0.333496H8.66667C8.29848 0.333496 8 0.631973 8 1.00016V1.66683H4V1.00016C4 0.631973 3.70152 0.333496 3.33333 0.333496H2.66667Z" fill="#667483"/>
<path fill-rule="evenodd" clip-rule="evenodd" d="M12 5.66683H0V11.6668C0 12.4032 0.596954 13.0002 1.33333 13.0002H10.6667C11.403 13.0002 12 12.4032 12 11.6668V5.66683ZM2 7.66683C2 7.29864 2.29848 7.00016 2.66667 7.00016H4C4.36819 7.00016 4.66667 7.29864 4.66667 7.66683V8.3335C4.66667 8.70169 4.36819 9.00016 4 9.00016H2.66667C2.29848 9.00016 2 8.70169 2 8.3335V7.66683Z" fill="#667483"/>
</svg>
