<svg width="26" height="27" viewBox="0 0 26 27" fill="none" xmlns="http://www.w3.org/2000/svg">
<path d="M19.652 23.9217C18.6986 24.2033 17.572 24.3334 16.2503 24.3334H9.7503C8.42863 24.3334 7.30197 24.2033 6.34863 23.9217C6.58697 21.105 9.47947 18.8842 13.0003 18.8842C16.5211 18.8842 19.4136 21.105 19.652 23.9217Z" stroke="white" stroke-width="1.5" stroke-linecap="round" stroke-linejoin="round"/>
<path d="M16.2503 2.66663H9.75033C4.33366 2.66663 2.16699 4.83329 2.16699 10.25V16.75C2.16699 20.845 3.40199 23.0875 6.34866 23.9216C6.58699 21.105 9.47949 18.8841 13.0003 18.8841C16.5212 18.8841 19.4137 21.105 19.652 23.9216C22.5987 23.0875 23.8337 20.845 23.8337 16.75V10.25C23.8337 4.83329 21.667 2.66663 16.2503 2.66663ZM13.0003 15.8508C10.8553 15.8508 9.12199 14.1066 9.12199 11.9616C9.12199 9.81664 10.8553 8.08329 13.0003 8.08329C15.1453 8.08329 16.8787 9.81664 16.8787 11.9616C16.8787 14.1066 15.1453 15.8508 13.0003 15.8508Z" stroke="white" stroke-width="1.5" stroke-linecap="round" stroke-linejoin="round"/>
<path d="M16.8787 11.9617C16.8787 14.1067 15.1454 15.8509 13.0004 15.8509C10.8554 15.8509 9.12207 14.1067 9.12207 11.9617C9.12207 9.81673 10.8554 8.08337 13.0004 8.08337C15.1454 8.08337 16.8787 9.81673 16.8787 11.9617Z" stroke="white" stroke-width="1.5" stroke-linecap="round" stroke-linejoin="round"/>
</svg>
