<svg width="13" height="15" viewBox="0 0 13 15" fill="none" xmlns="http://www.w3.org/2000/svg">
<path d="M5 10L5 8" stroke="#FB2323" stroke-width="0.8" stroke-linecap="round"/>
<path d="M8 10L8 8" stroke="#FB2323" stroke-width="0.8" stroke-linecap="round"/>
<path d="M0 5H13V5C12.5095 5 12.2642 5 12.0607 5.0428C11.2846 5.206 10.6782 5.81235 10.515 6.58845C10.4722 6.792 10.4722 7.03726 10.4722 7.52778V10.0278C10.4722 11.8864 10.4722 12.8157 9.90178 13.3987C9.89161 13.4091 9.88132 13.4194 9.87092 13.4296C9.2879 14 8.3586 14 6.5 14V14C4.6414 14 3.7121 14 3.12908 13.4296C3.11868 13.4194 3.10839 13.4091 3.09822 13.3987C2.52778 12.8157 2.52778 11.8864 2.52778 10.0278V7.52778C2.52778 7.03726 2.52778 6.792 2.48498 6.58845C2.32178 5.81235 1.71543 5.206 0.939333 5.0428C0.735781 5 0.490521 5 0 5V5Z" stroke="#FB2323" stroke-width="0.8" stroke-linecap="round"/>
<path d="M5 2C5 2 5.3 1 6.5 1C7.7 1 8 1.99976 8 1.99976" stroke="#FB2323" stroke-width="0.8" stroke-linecap="round"/>
</svg>
