<svg width="12" height="12" viewBox="0 0 12 12" fill="none" xmlns="http://www.w3.org/2000/svg">
<path d="M11.8469 6.6662L11.6609 6.41821C11.4602 6.14623 11.4555 5.77959 11.6535 5.50761L11.8342 5.25763C12.1116 4.87366 11.9829 4.33903 11.5589 4.11838L11.2815 3.97239C10.9789 3.81441 10.8155 3.48376 10.8722 3.15379L10.9242 2.84981C11.0035 2.38584 10.6515 1.95788 10.1708 1.93854L9.85816 1.92654C9.51616 1.91188 9.22081 1.6859 9.12681 1.36259L9.04014 1.06594C8.90614 0.613974 8.40079 0.380658 7.95945 0.565311L7.67211 0.686635C7.35743 0.819959 6.99276 0.739965 6.76209 0.489983L6.55408 0.261333C6.23207 -0.0906409 5.67139 -0.0859746 5.35672 0.268666L5.15071 0.499982C4.92537 0.75263 4.5607 0.837291 4.24602 0.708634L3.95601 0.591976C3.512 0.411989 3.00866 0.655304 2.88265 1.10927L2.80065 1.40592C2.71132 1.72923 2.41931 1.95988 2.07663 1.97921L1.76462 1.99654C1.28595 2.0232 0.93927 2.45584 1.02594 2.91714L1.08327 3.21845C1.14461 3.54909 0.983271 3.87973 0.68593 4.04239L0.41059 4.19038C-0.00808748 4.41903 -0.129424 4.95566 0.15325 5.33496L0.339255 5.58294C0.539926 5.85492 0.544593 6.22156 0.346588 6.49421L0.165917 6.74419C-0.111423 7.12816 0.0172465 7.66279 0.441257 7.88344L0.718598 8.02943C1.02127 8.18742 1.18461 8.51806 1.12794 8.84804L1.07594 9.15201C0.996605 9.61598 1.34861 10.0439 1.82929 10.0633L2.14197 10.0753C2.48398 10.0899 2.77932 10.3159 2.87332 10.6392L2.95999 10.9359C3.09399 11.3878 3.59934 11.6212 4.04068 11.4365L4.32802 11.3152C4.6427 11.1819 5.00737 11.2619 5.23805 11.5118L5.44605 11.7405C5.76606 12.0905 6.32607 12.0858 6.64075 11.7305L6.84675 11.4998C7.07209 11.2472 7.43677 11.1619 7.75144 11.2912L8.04145 11.4078C8.48546 11.5878 8.98881 11.3445 9.11481 10.8906L9.19681 10.5939C9.28615 10.2706 9.57882 10.0399 9.92083 10.0206L10.2335 10.0033C10.7122 9.97662 11.0589 9.54399 10.9722 9.08269L10.9149 8.78137C10.8529 8.45073 11.0142 8.12076 11.3115 7.95743L11.5869 7.80945C12.0082 7.58213 12.1296 7.0455 11.8469 6.6662Z" fill="#3C6FF3"/>
<path d="M3.44385 5.52173L4.16697 6.96797C4.30954 7.2531 4.67748 7.33509 4.92547 7.13697L8.54199 4.2478" stroke="white" stroke-linecap="round"/>
</svg>
