<svg width="18" height="19" viewBox="0 0 18 19" fill="none" xmlns="http://www.w3.org/2000/svg">
<path d="M8.12533 10.0834L6.91699 8.89587C6.76421 8.74309 6.57338 8.6667 6.34449 8.6667C6.1156 8.6667 5.91755 8.75003 5.75033 8.9167C5.59755 9.06948 5.52116 9.26392 5.52116 9.50003C5.52116 9.73614 5.59755 9.93059 5.75033 10.0834L7.54199 11.875C7.70866 12.0417 7.9031 12.125 8.12533 12.125C8.34755 12.125 8.54199 12.0417 8.70866 11.875L12.2503 8.33337C12.417 8.1667 12.4967 7.97225 12.4895 7.75003C12.4823 7.52781 12.4025 7.33337 12.2503 7.1667C12.0837 7.00003 11.8859 6.91337 11.657 6.9067C11.4281 6.90003 11.23 6.97975 11.0628 7.14587L8.12533 10.0834ZM5.79199 17.625L4.58366 15.5834L2.29199 15.0834C2.08366 15.0417 1.91699 14.9342 1.79199 14.7609C1.66699 14.5875 1.61838 14.3964 1.64616 14.1875L1.87533 11.8334L0.312826 10.0417C0.173937 9.88892 0.104492 9.70837 0.104492 9.50003C0.104492 9.2917 0.173937 9.11114 0.312826 8.95837L1.87533 7.1667L1.64616 4.81253C1.61838 4.6042 1.66699 4.41309 1.79199 4.2392C1.91699 4.06531 2.08366 3.95781 2.29199 3.9167L4.58366 3.4167L5.79199 1.37503C5.9031 1.19448 6.05588 1.07281 6.25032 1.01003C6.44477 0.947255 6.63921 0.957811 6.83366 1.0417L9.00033 1.95837L11.167 1.0417C11.3614 0.958366 11.5559 0.947811 11.7503 1.01003C11.9448 1.07225 12.0975 1.19392 12.2087 1.37503L13.417 3.4167L15.7087 3.9167C15.917 3.95837 16.0837 4.06614 16.2087 4.24003C16.3337 4.41392 16.3823 4.60475 16.3545 4.81253L16.1253 7.1667L17.6878 8.95837C17.8267 9.11114 17.8962 9.2917 17.8962 9.50003C17.8962 9.70837 17.8267 9.88892 17.6878 10.0417L16.1253 11.8334L16.3545 14.1875C16.3823 14.3959 16.3337 14.587 16.2087 14.7609C16.0837 14.9348 15.917 15.0423 15.7087 15.0834L13.417 15.5834L12.2087 17.625C12.0975 17.8056 11.9448 17.9273 11.7503 17.99C11.5559 18.0528 11.3614 18.0423 11.167 17.9584L9.00033 17.0417L6.83366 17.9584C6.63921 18.0417 6.44477 18.0523 6.25032 17.99C6.05588 17.9278 5.9031 17.8061 5.79199 17.625Z" fill="url(#paint0_linear_79_2296)"/>
<defs>
<linearGradient id="paint0_linear_79_2296" x1="9.00032" y1="0.969727" x2="9.00032" y2="18.0303" gradientUnits="userSpaceOnUse">
<stop stop-color="#EE22AA"/>
<stop offset="1" stop-color="#AF00FD"/>
</linearGradient>
</defs>
</svg>
