<svg width="16" height="16" viewBox="0 0 16 16" fill="none" xmlns="http://www.w3.org/2000/svg">
<path d="M2.67971 14.533L2.67972 14.533L2.70149 14.5275L2.70151 14.5275L5.33384 13.8694C5.34896 13.8656 5.36396 13.8619 5.37885 13.8582C5.60159 13.8028 5.79877 13.7537 5.9778 13.6523C6.15683 13.551 6.30035 13.4071 6.46248 13.2447C6.47332 13.2338 6.48425 13.2229 6.49527 13.2118L13.6893 6.01777L13.6893 6.01776L13.7126 5.99448C14.0261 5.68108 14.2961 5.41105 14.4833 5.16573C14.6839 4.90281 14.8358 4.61038 14.8358 4.25C14.8358 3.88961 14.6839 3.59719 14.4833 3.33427C14.2961 3.08894 14.026 2.8189 13.7126 2.5055L13.6893 2.48223L13.3358 2.83579L13.6893 2.48223L13.5178 2.31066L13.4945 2.28738C13.1811 1.97395 12.9111 1.70388 12.6657 1.5167C12.4028 1.3161 12.1104 1.16421 11.75 1.16421C11.3896 1.16421 11.0972 1.3161 10.8343 1.5167C10.5889 1.70388 10.3189 1.97395 10.0055 2.28739L9.98223 2.31066L2.78816 9.50473C2.77714 9.51576 2.76619 9.52668 2.75533 9.53752C2.59286 9.69965 2.44903 9.84317 2.34766 10.0222C2.2463 10.2012 2.19723 10.3984 2.14179 10.6211C2.13809 10.636 2.13435 10.651 2.13057 10.6662L1.46704 13.3203C1.46483 13.3291 1.4626 13.338 1.46036 13.347C1.42112 13.5037 1.37921 13.671 1.36546 13.8115C1.35032 13.9663 1.35385 14.2273 1.56326 14.4367C1.77267 14.6461 2.03373 14.6497 2.18846 14.6345C2.32899 14.6208 2.49633 14.5789 2.65301 14.5396C2.66195 14.5374 2.67085 14.5352 2.67971 14.533Z" stroke="white"/>
</svg>
