<svg width="22" height="21" viewBox="0 0 22 21" fill="none" xmlns="http://www.w3.org/2000/svg">
<path fill-rule="evenodd" clip-rule="evenodd" d="M4.90043 9.46364L2.26434 4.19145C1.15502 1.97282 0.600363 0.863504 1.11002 0.35385C1.61967 -0.155804 2.72899 0.398854 4.94762 1.50817L19.2808 8.67478C20.8419 9.45533 21.6225 9.8456 21.6225 10.4636C21.6225 11.0817 20.8419 11.4719 19.2808 12.2525L4.94762 19.4191C2.72899 20.5284 1.61967 21.0831 1.11002 20.5734C0.600364 20.0638 1.15502 18.9545 2.26434 16.7358L4.90043 11.4636L13.1596 11.4636C13.7119 11.4636 14.1596 11.0159 14.1596 10.4636C14.1596 9.91135 13.7119 9.46364 13.1596 9.46364L4.90043 9.46364Z" fill="#C90202"/>
</svg>
