<svg width="28" height="20" viewBox="0 0 28 20" fill="none" xmlns="http://www.w3.org/2000/svg">
<path d="M5.42931 0.298942C5.8279 0.697532 5.8279 1.34377 5.42931 1.74236C0.911967 6.25971 0.911967 13.5838 5.42931 18.1011C5.8279 18.4997 5.8279 19.146 5.42931 19.5445C5.03072 19.9431 4.38448 19.9431 3.98589 19.5445C-1.32863 14.23 -1.32863 5.61347 3.98589 0.298942C4.38448 -0.0996474 5.03072 -0.0996474 5.42931 0.298942ZM23.2315 0.298942C28.546 5.61347 28.546 14.23 23.2315 19.5445C22.8329 19.9431 22.1867 19.9431 21.7881 19.5445C21.3895 19.146 21.3895 18.4997 21.7881 18.1011C26.3054 13.5838 26.3054 6.25971 21.7881 1.74236C21.3895 1.34377 21.3895 0.697532 21.7881 0.298942C22.1867 -0.0996474 22.8329 -0.0996474 23.2315 0.298942ZM9.27843 4.14806C9.67702 4.54665 9.67702 5.19289 9.27843 5.59148C6.8869 7.98302 6.8869 11.8605 9.27843 14.252C9.67702 14.6506 9.67702 15.2968 9.27843 15.6954C8.87984 16.094 8.2336 16.094 7.83501 15.6954C4.6463 12.5067 4.6463 7.33678 7.83501 4.14806C8.2336 3.74947 8.87984 3.74947 9.27843 4.14806ZM19.3824 4.14806C22.5711 7.33678 22.5711 12.5067 19.3824 15.6954C18.9838 16.094 18.3375 16.094 17.9389 15.6954C17.5404 15.2968 17.5404 14.6506 17.9389 14.252C20.3305 11.8605 20.3305 7.98302 17.9389 5.59148C17.5404 5.19289 17.5404 4.54665 17.9389 4.14806C18.3375 3.74947 18.9838 3.74947 19.3824 4.14806ZM13.6087 7.88044C14.7361 7.88044 15.65 8.79436 15.65 9.92174C15.65 11.0491 14.7361 11.963 13.6087 11.963C12.4813 11.963 11.5674 11.0491 11.5674 9.92174C11.5674 8.79436 12.4813 7.88044 13.6087 7.88044Z" fill="white"/>
</svg>
