<svg width="50" height="50" viewBox="0 0 50 50" fill="none" xmlns="http://www.w3.org/2000/svg">
<path fill-rule="evenodd" clip-rule="evenodd" d="M25 50C38.8071 50 50 38.8071 50 25C50 11.1929 38.8071 0 25 0C11.1929 0 0 11.1929 0 25C0 38.8071 11.1929 50 25 50Z" fill="#1FB463"/>
<rect x="10" y="10" width="30" height="30" fill="#FF0000" fill-opacity="0.01"/>
<path fill-rule="evenodd" clip-rule="evenodd" d="M36.3194 25.8364L36.6914 26.3324C37.2567 27.091 37.0141 28.1643 36.1715 28.6189L35.6208 28.9149C35.0262 29.2415 34.7036 29.9015 34.8276 30.5627L34.9422 31.1654C35.1155 32.088 34.4223 32.9532 33.465 33.0066L32.8397 33.0412C32.1558 33.0799 31.5705 33.5412 31.3918 34.1878L31.2278 34.7811C30.9758 35.689 29.9692 36.1757 29.0813 35.8157L28.5014 35.5824C27.8721 35.3237 27.1428 35.4944 26.6922 35.9997L26.2802 36.461C25.6509 37.1716 24.531 37.1809 23.891 36.481L23.4751 36.0237C23.0138 35.5237 22.2845 35.3637 21.6552 35.6304L21.0806 35.873C20.198 36.2423 19.1874 35.7757 18.9194 34.8718L18.7461 34.2785C18.5581 33.6319 17.9675 33.1799 17.2835 33.1506L16.6582 33.1266C15.697 33.0879 14.993 32.232 15.1517 31.304L15.2557 30.6961C15.369 30.0361 15.0423 29.3748 14.4371 29.0589L13.8824 28.7669C13.0345 28.3256 12.7772 27.2563 13.3318 26.4884L13.6931 25.9884C14.0891 25.4431 14.0797 24.7098 13.6784 24.1659L13.3065 23.6699C12.7412 22.9113 12.9838 21.8381 13.8211 21.3808L14.3717 21.0848C14.9663 20.7595 15.289 20.0982 15.1663 19.4369L15.0517 18.8343C14.8784 17.9117 15.5716 17.0464 16.5289 16.9931L17.1529 16.9584C17.8381 16.9198 18.4221 16.4585 18.6007 15.8118L18.7647 15.2185C19.0167 14.3106 20.0233 13.824 20.9112 14.184L21.4912 14.4173C22.1205 14.6746 22.8498 14.5053 23.3004 14L23.7124 13.5373C24.3417 12.8281 25.4629 12.8187 26.1069 13.5227L26.5228 13.98C26.9841 14.4799 27.7134 14.6399 28.3427 14.3733L28.9173 14.1306C29.7999 13.7613 30.8105 14.2279 31.0785 15.1319L31.2518 15.7252C31.4398 16.3718 32.0304 16.8238 32.7144 16.8531L33.3397 16.8771C34.3009 16.9158 35.0049 17.7717 34.8462 18.6996L34.7422 19.3076C34.6289 19.9675 34.9555 20.6288 35.5608 20.9448L36.1155 21.2368C36.9634 21.6781 37.2207 22.7473 36.6661 23.5153L36.3048 24.0152C35.9088 24.5592 35.9181 25.2925 36.3194 25.8364ZM26.2362 30.0641C26.9161 29.8801 27.5014 29.5202 27.9521 28.9855C29.196 27.5043 28.72 25.3311 26.9695 24.3645C26.4977 24.1083 26.0038 23.9089 25.5066 23.7082C25.4192 23.6729 25.3317 23.6376 25.2443 23.6019C24.907 23.4659 24.5803 23.3059 24.2977 23.082C23.7324 22.6447 23.8417 21.93 24.5003 21.6487C24.6843 21.5701 24.883 21.5407 25.0816 21.5314C25.8442 21.4927 26.5682 21.6287 27.2574 21.954C27.6041 22.1194 27.7187 22.066 27.8334 21.7181C27.9298 21.4308 28.0142 21.138 28.0983 20.8457C28.1224 20.7622 28.1464 20.6788 28.1707 20.5955C28.2454 20.3422 28.1507 20.1768 27.9081 20.0702C27.4668 19.8795 27.0108 19.7395 26.5348 19.6662C25.9149 19.575 25.9148 19.569 25.9097 18.9725L25.9095 18.9569C25.9069 18.5272 25.9056 18.3109 25.7967 18.202C25.6865 18.0917 25.4658 18.0917 25.0216 18.0917C24.9785 18.0917 24.9354 18.0911 24.8925 18.0905C24.8067 18.0893 24.7211 18.0881 24.635 18.0917C24.2177 18.101 24.1483 18.173 24.1403 18.5823V19.1316C24.1351 19.6663 24.135 19.6664 23.6309 19.8461C23.6222 19.8492 23.6134 19.8523 23.6044 19.8555C22.3245 20.3128 21.5312 21.1674 21.4472 22.538C21.3725 23.7526 22.0165 24.5685 23.0338 25.1671C23.4667 25.4234 23.9337 25.6071 24.4008 25.7909C24.6069 25.872 24.813 25.9531 25.0163 26.0404C25.2736 26.1511 25.5216 26.2831 25.7402 26.4577C26.3802 26.9737 26.2615 27.8336 25.5029 28.1589C25.0963 28.3336 24.6643 28.3776 24.2283 28.3242C23.5497 28.2416 22.8991 28.0669 22.2898 27.7563C21.9325 27.5763 21.8285 27.6256 21.7045 28.0043C21.622 28.2538 21.5504 28.5081 21.479 28.7616C21.4569 28.8399 21.4349 28.9182 21.4125 28.9962C21.2886 29.4442 21.3325 29.5508 21.7645 29.7548C22.3151 30.0175 22.9044 30.1534 23.5097 30.2454C23.9804 30.3188 23.995 30.3374 24.0004 30.8187C24.0004 31.032 24.0004 31.2507 24.0057 31.4693C24.011 31.7413 24.1443 31.9013 24.4323 31.9067C24.759 31.916 25.0869 31.916 25.4136 31.9067C25.6816 31.9013 25.8202 31.76 25.8202 31.4933C25.8202 31.3943 25.8218 31.2949 25.8235 31.1953C25.8267 30.996 25.83 30.7962 25.8202 30.5987C25.8042 30.2974 25.9389 30.1414 26.2362 30.0641Z" fill="white"/>
<mask id="mask0_188_743" style="mask-type:alpha" maskUnits="userSpaceOnUse" x="13" y="13" width="24" height="24">
<path fill-rule="evenodd" clip-rule="evenodd" d="M36.3194 25.8364L36.6914 26.3324C37.2567 27.091 37.0141 28.1643 36.1715 28.6189L35.6208 28.9149C35.0262 29.2415 34.7036 29.9015 34.8276 30.5627L34.9422 31.1654C35.1155 32.088 34.4223 32.9532 33.465 33.0066L32.8397 33.0412C32.1558 33.0799 31.5705 33.5412 31.3918 34.1878L31.2278 34.7811C30.9758 35.689 29.9692 36.1757 29.0813 35.8157L28.5014 35.5824C27.8721 35.3237 27.1428 35.4944 26.6922 35.9997L26.2802 36.461C25.6509 37.1716 24.531 37.1809 23.891 36.481L23.4751 36.0237C23.0138 35.5237 22.2845 35.3637 21.6552 35.6304L21.0806 35.873C20.198 36.2423 19.1874 35.7757 18.9194 34.8718L18.7461 34.2785C18.5581 33.6319 17.9675 33.1799 17.2835 33.1506L16.6582 33.1266C15.697 33.0879 14.993 32.232 15.1517 31.304L15.2557 30.6961C15.369 30.0361 15.0423 29.3748 14.4371 29.0589L13.8824 28.7669C13.0345 28.3256 12.7772 27.2563 13.3318 26.4884L13.6931 25.9884C14.0891 25.4431 14.0797 24.7098 13.6784 24.1659L13.3065 23.6699C12.7412 22.9113 12.9838 21.8381 13.8211 21.3808L14.3717 21.0848C14.9663 20.7595 15.289 20.0982 15.1663 19.4369L15.0517 18.8343C14.8784 17.9117 15.5716 17.0464 16.5289 16.9931L17.1529 16.9584C17.8381 16.9198 18.4221 16.4585 18.6007 15.8118L18.7647 15.2185C19.0167 14.3106 20.0233 13.824 20.9112 14.184L21.4912 14.4173C22.1205 14.6746 22.8498 14.5053 23.3004 14L23.7124 13.5373C24.3417 12.8281 25.4629 12.8187 26.1069 13.5227L26.5228 13.98C26.9841 14.4799 27.7134 14.6399 28.3427 14.3733L28.9173 14.1306C29.7999 13.7613 30.8105 14.2279 31.0785 15.1319L31.2518 15.7252C31.4398 16.3718 32.0304 16.8238 32.7144 16.8531L33.3397 16.8771C34.3009 16.9158 35.0049 17.7717 34.8462 18.6996L34.7422 19.3076C34.6289 19.9675 34.9555 20.6288 35.5608 20.9448L36.1155 21.2368C36.9634 21.6781 37.2207 22.7473 36.6661 23.5153L36.3048 24.0152C35.9088 24.5592 35.9181 25.2925 36.3194 25.8364ZM26.2362 30.0641C26.9161 29.8801 27.5014 29.5202 27.9521 28.9855C29.196 27.5043 28.72 25.3311 26.9695 24.3645C26.4977 24.1083 26.0038 23.9089 25.5066 23.7082C25.4192 23.6729 25.3317 23.6376 25.2443 23.6019C24.907 23.4659 24.5803 23.3059 24.2977 23.082C23.7324 22.6447 23.8417 21.93 24.5003 21.6487C24.6843 21.5701 24.883 21.5407 25.0816 21.5314C25.8442 21.4927 26.5682 21.6287 27.2574 21.954C27.6041 22.1194 27.7187 22.066 27.8334 21.7181C27.9298 21.4308 28.0142 21.138 28.0983 20.8457C28.1224 20.7622 28.1464 20.6788 28.1707 20.5955C28.2454 20.3422 28.1507 20.1768 27.9081 20.0702C27.4668 19.8795 27.0108 19.7395 26.5348 19.6662C25.9149 19.575 25.9148 19.569 25.9097 18.9725L25.9095 18.9569C25.9069 18.5272 25.9056 18.3109 25.7967 18.202C25.6865 18.0917 25.4658 18.0917 25.0216 18.0917C24.9785 18.0917 24.9354 18.0911 24.8925 18.0905C24.8067 18.0893 24.7211 18.0881 24.635 18.0917C24.2177 18.101 24.1483 18.173 24.1403 18.5823V19.1316C24.1351 19.6663 24.135 19.6664 23.6309 19.8461C23.6222 19.8492 23.6134 19.8523 23.6044 19.8555C22.3245 20.3128 21.5312 21.1674 21.4472 22.538C21.3725 23.7526 22.0165 24.5685 23.0338 25.1671C23.4667 25.4234 23.9337 25.6071 24.4008 25.7909C24.6069 25.872 24.813 25.9531 25.0163 26.0404C25.2736 26.1511 25.5216 26.2831 25.7402 26.4577C26.3802 26.9737 26.2615 27.8336 25.5029 28.1589C25.0963 28.3336 24.6643 28.3776 24.2283 28.3242C23.5497 28.2416 22.8991 28.0669 22.2898 27.7563C21.9325 27.5763 21.8285 27.6256 21.7045 28.0043C21.622 28.2538 21.5504 28.5081 21.479 28.7616C21.4569 28.8399 21.4349 28.9182 21.4125 28.9962C21.2886 29.4442 21.3325 29.5508 21.7645 29.7548C22.3151 30.0175 22.9044 30.1534 23.5097 30.2454C23.9804 30.3188 23.995 30.3374 24.0004 30.8187C24.0004 31.032 24.0004 31.2507 24.0057 31.4693C24.011 31.7413 24.1443 31.9013 24.4323 31.9067C24.759 31.916 25.0869 31.916 25.4136 31.9067C25.6816 31.9013 25.8202 31.76 25.8202 31.4933C25.8202 31.3943 25.8218 31.2949 25.8235 31.1953C25.8267 30.996 25.83 30.7962 25.8202 30.5987C25.8042 30.2974 25.9389 30.1414 26.2362 30.0641Z" fill="white"/>
</mask>
<g mask="url(#mask0_188_743)">
</g>
</svg>
