<svg width="12" height="14" viewBox="0 0 12 14" fill="none" xmlns="http://www.w3.org/2000/svg">
<path fill-rule="evenodd" clip-rule="evenodd" d="M6.66655 10.1688V8.33335H3.87831C2.80048 8.33335 1.88667 9.12589 1.73424 10.1929C1.53227 11.6066 2.72988 12.8254 4.14695 12.6483L4.5187 12.6018C5.74574 12.4484 6.66655 11.4054 6.66655 10.1688Z" fill="white"/>
<path d="M6.66655 4.33335V3.92569C6.66655 2.84679 6.66655 2.30734 6.98253 1.93435C7.2985 1.56136 7.83061 1.47267 8.89482 1.2953L10.466 1.03345C10.5565 1.01836 10.6018 1.01081 10.6262 1.03727C10.6506 1.06372 10.6395 1.10825 10.6172 1.1973L10.0204 3.58482C10.0104 3.6246 10.0054 3.6445 9.99145 3.65783C9.97746 3.67116 9.95736 3.67519 9.91715 3.68323L6.66655 4.33335ZM6.66655 4.33335V8.33335M6.66655 8.33335V10.1688C6.66655 11.4054 5.74574 12.4484 4.5187 12.6018L4.14695 12.6483C2.72988 12.8254 1.53227 11.6066 1.73424 10.1929C1.88667 9.12589 2.80048 8.33335 3.87831 8.33335H6.66655Z" stroke="white" stroke-width="2"/>
</svg>
