<svg width="11" height="11" viewBox="0 0 11 11" fill="none" xmlns="http://www.w3.org/2000/svg">
<circle cx="5.5" cy="5.5" r="5.5" fill="#B6B6B6"/>
<path d="M5.73387 6.52335H5.27419L5.07258 3H5.93548L5.73387 6.52335ZM5 7.53297C5 7.36355 5.04839 7.2445 5.14516 7.17582C5.24194 7.10714 5.36022 7.0728 5.5 7.0728C5.63441 7.0728 5.75 7.10714 5.84677 7.17582C5.94892 7.2445 6 7.36355 6 7.53297C6 7.6978 5.94892 7.81685 5.84677 7.89011C5.75 7.96337 5.63441 8 5.5 8C5.36022 8 5.24194 7.96337 5.14516 7.89011C5.04839 7.81685 5 7.6978 5 7.53297Z" fill="black"/>
</svg>
