<svg width="50" height="52" viewBox="0 0 50 52" fill="none" xmlns="http://www.w3.org/2000/svg">
<path fill-rule="evenodd" clip-rule="evenodd" d="M25 51.2591C38.8071 51.2591 50 39.9699 50 26.0441C50 12.1182 38.8071 0.829102 25 0.829102C11.1929 0.829102 0 12.1182 0 26.0441C0 39.9699 11.1929 51.2591 25 51.2591Z" fill="#1FB463"/>
<path d="M36.6914 27.388L36.3194 26.8877C35.9181 26.3391 35.9088 25.5995 36.3048 25.0509L36.6661 24.5466C37.2207 23.7721 36.9634 22.6936 36.1155 22.2485L35.5608 21.954C34.9555 21.6353 34.6289 20.9684 34.7422 20.3027L34.8462 19.6896C35.0049 18.7536 34.3009 17.8903 33.3397 17.8513L32.7144 17.8271C32.0304 17.7976 31.4398 17.3417 31.2518 16.6895L31.0785 16.0911C30.8105 15.1794 29.7999 14.7088 28.9173 15.0813L28.3427 15.326C27.7134 15.5949 26.9841 15.4336 26.5228 14.9293L26.1069 14.4681C25.4629 13.7581 24.3417 13.7675 23.7124 14.4829L23.3004 14.9495C22.8498 15.4591 22.1205 15.6299 21.4912 15.3704L20.9112 15.1351C20.0233 14.772 19.0167 15.2628 18.7647 16.1785L18.6007 16.7769C18.4221 17.4291 17.8381 17.8944 17.1529 17.9334L16.5289 17.9683C15.5716 18.0221 14.8784 18.8948 15.0517 19.8254L15.1663 20.4332C15.289 21.1001 14.9663 21.7671 14.3717 22.0952L13.8211 22.3937C12.9838 22.855 12.7412 23.9375 13.3065 24.7026L13.6784 25.2028C14.0797 25.7515 14.0891 26.491 13.6931 27.041L13.3318 27.5453C12.7772 28.3198 13.0345 29.3983 13.8824 29.8434L14.4371 30.1379C15.0423 30.4566 15.369 31.1235 15.2557 31.7892L15.1517 32.4024C14.993 33.3383 15.697 34.2016 16.6582 34.2406L17.2835 34.2648C17.9675 34.2943 18.5581 34.7502 18.7461 35.4024L18.9194 36.0008C19.1874 36.9125 20.198 37.3831 21.0806 37.0106L21.6552 36.7659C22.2845 36.497 23.0138 36.6583 23.4751 37.1626L23.891 37.6238C24.531 38.3298 25.6509 38.3204 26.2802 37.6037L26.6922 37.1384C27.1428 36.6287 27.8721 36.4566 28.5014 36.7175L29.0813 36.9528C29.9692 37.3159 30.9758 36.8251 31.2278 35.9093L31.3918 35.3109C31.5705 34.6588 32.1558 34.1935 32.8397 34.1545L33.465 34.1195C34.4223 34.0657 35.1155 33.193 34.9422 32.2625L34.8276 31.6547C34.7036 30.9877 35.0262 30.3221 35.6208 29.9926L36.1715 29.6941C37.0141 29.2356 37.2567 28.1531 36.6914 27.388Z" fill="white"/>
<path d="M20.4874 26.3156L21.9282 28.5771C22.2526 29.0863 22.9482 29.1962 23.4099 28.8112L31.1948 22.3201" stroke="#1FB463" stroke-width="2" stroke-linecap="round"/>
</svg>
