<?xml version="1.0" encoding="iso-8859-1"?>
<!-- Uploaded to: SVGRepo, www.svgrepo.com, Transformed by: SVGRepo Tools -->
<svg fill="#000000" height="800px" width="800px" version="1.1" id="Capa_1" xmlns="http://www.w3.org/2000/svg" xmlns:xlink="http://www.w3.org/1999/xlink" 
	 viewBox="0 0 511.999 511.999" xml:space="preserve">
<g>
	<g>
		<path d="M503.915,153.88c4.466,0,8.084-3.618,8.084-8.084v-31.459c0-20.619-16.774-37.394-37.393-37.394H37.393
			C16.775,76.942,0,93.716,0,114.336v283.326c0,20.62,16.775,37.395,37.393,37.395h437.214c20.619,0,37.393-16.775,37.392-37.395
			V172.025c0-4.466-3.619-8.084-8.084-8.084s-8.084,3.618-8.084,8.084v225.637c0,11.705-9.522,21.227-21.225,21.227H37.393
			c-11.703,0-21.225-9.522-21.225-21.227V114.336c0-11.704,9.522-21.226,21.225-21.226h437.212c11.703,0,21.225,9.522,21.225,21.226
			v31.459C495.831,150.261,499.449,153.88,503.915,153.88z"/>
	</g>
</g>
<g>
	<g>
		<path d="M444.303,316.461H68.652c-4.466,0-8.084,3.618-8.084,8.084c0,4.466,3.618,8.084,8.084,8.084h375.651
			c4.466,0,8.084-3.62,8.084-8.084C452.387,320.079,448.769,316.461,444.303,316.461z"/>
	</g>
</g>
<g>
	<g>
		<path d="M444.303,355.563H68.652c-4.466,0-8.084,3.619-8.084,8.084c0,4.465,3.618,8.084,8.084,8.084h375.651
			c4.466,0,8.084-3.619,8.084-8.084C452.387,359.181,448.769,355.563,444.303,355.563z"/>
	</g>
</g>
<g>
	<g>
		<path d="M158.853,142.368h-87.82c-8.36,0-15.162,6.8-15.162,15.159v68.436c0,8.36,6.803,15.162,15.162,15.162h87.82
			c8.36,0,15.162-6.802,15.162-15.162v-68.436C174.015,149.169,167.213,142.368,158.853,142.368z M142.429,158.536h15.417v11.36
			h-15.417V158.536z M91.411,224.957H72.04v-11.36h19.371V224.957z M91.411,197.429H72.04v-11.364h19.371V197.429z M91.411,169.896
			H72.04v-11.36h19.371V169.896z M157.846,224.957h-50.268v-66.421h0.001h18.682v46.977c0,4.466,3.619,8.084,8.084,8.084h23.501
			V224.957z M157.847,197.429H142.43v-11.364h15.417V197.429z"/>
	</g>
</g>
<g>
	<g>
		<path d="M439.479,164.148l-0.563-1.124c-0.383-0.765-0.828-1.5-1.326-2.195c-8.162-11.357-18.744-20.523-30.619-26.527
			c-12.419-6.839-25.556-10.306-39.052-10.306c-13.844,0-27.078,3.279-39.332,9.747c-12.528,6.609-22.876,15.692-30.753,26.995
			c-0.444,0.638-0.842,1.307-1.189,2.002l-0.564,1.124c-0.219,0.439-0.411,0.887-0.587,1.339c-2.693-0.456-5.461-0.7-8.305-0.7
			c-14.439,0-26.729,4.554-36.522,13.534c-0.015,0.013-0.029,0.025-0.042,0.038c-10.73,9.906-16.173,22.893-16.173,38.603
			s5.442,28.698,16.173,38.604c0.014,0.012,0.028,0.024,0.043,0.037c9.794,8.98,22.082,13.534,36.522,13.534
			c7.905,0,15.259-1.793,21.854-5.25c2.956,3.22,7.186,5.25,11.901,5.25h14.065c7.724,0,14.174-5.421,15.777-12.663
			c0.47,0.592,0.967,1.176,1.506,1.745c5.895,6.778,13.909,10.354,23.225,10.354c6.255,0,11.751-1.046,16.672-3.173
			c2.803,2.331,6.404,3.737,10.335,3.737h14.063c8.93,0,16.168-7.239,16.168-16.168v-31.787v-35.312
			c2.433-1.325,4.525-3.268,6.028-5.702C441.726,175.114,441.991,169.16,439.479,164.148z M286.627,194.175
			c-6.189,0-11.252,1.968-15.473,6.189c-4.219,4.218-6.187,9.563-6.187,16.034c0,6.469,1.968,11.815,6.187,16.035
			c3.939,4.218,9.284,6.469,15.473,6.469c5.906,0,11.53-2.813,16.875-7.877l0.282-0.281l0.257,0.309
			c0.009-0.009,0.017-0.019,0.025-0.028l3.796,4.642l4.08,4.923l-0.282,0.281c-2.634,3.207-5.553,5.75-8.747,7.651
			c-0.053,0.031-0.106,0.064-0.158,0.095c-1.282,0.751-2.606,1.401-3.975,1.945c-0.067,0.026-0.134,0.05-0.199,0.076
			c-0.598,0.231-1.203,0.442-1.817,0.634c-0.122,0.038-0.245,0.078-0.368,0.114c-1.359,0.405-2.759,0.718-4.201,0.932
			c-0.174,0.025-0.349,0.045-0.524,0.068c-0.551,0.072-1.106,0.131-1.668,0.177c-0.203,0.017-0.404,0.034-0.609,0.047
			c-0.727,0.045-1.461,0.076-2.209,0.076c-10.408,0-18.846-3.094-25.598-9.283c-7.313-6.752-10.971-15.472-10.971-26.724
			c0.001-11.254,3.658-19.973,10.972-26.725c6.752-6.189,15.19-9.283,25.598-9.283c0.594,0,1.179,0.016,1.759,0.044
			c0.275,0.014,0.544,0.04,0.818,0.06c0.294,0.022,0.592,0.039,0.884,0.068c0.364,0.037,0.722,0.086,1.081,0.135
			c0.189,0.025,0.379,0.046,0.566,0.074c0.417,0.064,0.828,0.14,1.237,0.22c0.12,0.023,0.243,0.043,0.362,0.069
			c0.453,0.093,0.899,0.198,1.343,0.313c0.069,0.018,0.14,0.033,0.21,0.053c0.474,0.124,0.942,0.261,1.407,0.409
			c0.036,0.012,0.072,0.022,0.109,0.033c0.487,0.156,0.967,0.326,1.443,0.507c0.013,0.004,0.024,0.009,0.036,0.014
			c0.488,0.186,0.971,0.386,1.449,0.599c0,0,0.002,0,0.004,0.001c4.398,1.961,8.324,5.025,11.766,9.216l0.154,0.155l0.128-0.155
			l-0.095,0.189l0.095,0.094l-7.168,8.404l-0.99,1.16l-0.282-0.281C298.157,196.989,292.531,194.175,286.627,194.175z
			 M296.063,216.538c-1.341,0.73-2.585,1.651-3.689,2.751l-0.12,0.12c-2.229,2.085-4.327,3.324-5.628,3.324
			c-2.125,0-3.038-0.675-3.655-1.333c-0.126-0.135-0.254-0.267-0.383-0.398c-0.545-0.544-1.455-1.455-1.455-4.603
			c0-3.148,0.908-4.057,1.451-4.599c0.853-0.854,1.639-1.455,4.042-1.455c1.301,0,3.398,1.24,5.628,3.324l0.12,0.12
			C293.478,214.885,294.722,215.808,296.063,216.538z M335.009,187.706v17.507v3.027v44.446h-12.201h-1.865v-26.574v-9.713v-9.268
			V184.61v-2.252h14.065v2.254h0.001V187.706z M388.457,248.746v0.281h-0.282c-2.043,1.258-4.267,2.063-6.661,2.541
			c-0.15,0.03-0.297,0.061-0.448,0.088c-0.301,0.055-0.607,0.103-0.913,0.148c-0.222,0.032-0.447,0.061-0.673,0.088
			c-0.265,0.031-0.53,0.063-0.798,0.087c-0.304,0.027-0.612,0.048-0.922,0.068c-0.207,0.013-0.414,0.029-0.624,0.039
			c-0.534,0.023-1.071,0.037-1.62,0.037c-4.781,0-8.438-1.688-11.253-5.063c-3.095-3.095-3.937-7.594-3.937-12.939v-32.35v-8.157
			h-9.149h-4.915v-11.252h4.915h9.149v-12.653v-1.974l14.065-7.594v9.456v4.327v8.438h11.962h2.103v11.252h-2.103h-11.962v8.157
			v29.817c0,5.345,1.688,7.878,6.187,7.878c0.472,0,0.931-0.026,1.385-0.071c0.113-0.011,0.225-0.03,0.337-0.044
			c0.351-0.043,0.702-0.096,1.051-0.166c0.107-0.022,0.212-0.046,0.32-0.07c0.371-0.083,0.738-0.179,1.111-0.292
			c0.073-0.023,0.148-0.044,0.221-0.069c0.438-0.14,0.877-0.296,1.328-0.479c1.347-0.544,2.764-1.265,4.373-2.185l0.844-0.562
			L388.457,248.746z M416.585,187.557v33.34v31.787h-12.383h-1.68V223.67v-12.617v-9.492v-14.42v-4.781h14.063V187.557z
			 M421.369,171.389v-0.002h-3.657h-8.722h-0.28h-0.282l-0.282-0.562c-1.581-1.66-3.211-3.198-4.888-4.636
			c-0.963-0.827-1.943-1.611-2.942-2.364c-0.057-0.042-0.113-0.086-0.169-0.128c-3.072-2.299-6.313-4.252-9.757-5.861
			c-0.364-0.17-0.721-0.352-1.091-0.514c-6.945-3.056-14.167-4.462-21.659-4.497c-6.463,0.029-12.72,1.088-18.597,3.337h-0.001
			c-0.936,0.358-1.864,0.739-2.781,1.16c-1.941,0.822-3.802,1.745-5.595,2.758c-0.695,0.416-1.383,0.852-2.064,1.3
			c-0.174,0.113-0.344,0.234-0.516,0.349c-0.526,0.356-1.051,0.716-1.568,1.089c-0.154,0.111-0.305,0.223-0.458,0.335
			c-0.562,0.411-1.117,0.829-1.665,1.257c-0.094,0.072-0.186,0.146-0.279,0.219c-0.647,0.51-1.286,1.028-1.917,1.56
			c-1.854,1.562-3.64,3.211-5.344,4.916h-8.461h-4.762h-3.092l0.557-1.122c0.232-0.331,0.482-0.64,0.718-0.965
			c0.002-0.004,0.006-0.008,0.009-0.012c2.388-3.3,5.022-6.349,7.905-9.136c0.014-0.013,0.027-0.024,0.041-0.037
			c0.942-0.911,1.909-1.796,2.902-2.651c0.094-0.081,0.194-0.156,0.288-0.237c0.921-0.783,1.854-1.55,2.815-2.285
			c0.24-0.184,0.494-0.355,0.737-0.536c0.833-0.621,1.67-1.24,2.535-1.826c0.498-0.338,1.019-0.652,1.526-0.98
			c0.64-0.411,1.269-0.833,1.924-1.227c1.186-0.713,2.396-1.397,3.634-2.049c10.129-5.345,20.818-7.878,31.787-7.878
			c10.971,0,21.379,2.812,31.505,8.439c1.195,0.598,2.364,1.237,3.512,1.904c0.402,0.233,0.789,0.486,1.183,0.727
			c0.734,0.447,1.465,0.897,2.177,1.37c0.468,0.311,0.922,0.638,1.381,0.96c0.614,0.432,1.228,0.868,1.825,1.32
			c0.486,0.365,0.961,0.742,1.436,1.121c0.545,0.434,1.084,0.875,1.615,1.326c0.486,0.415,0.968,0.832,1.444,1.26
			c0.488,0.44,0.969,0.889,1.447,1.343c0.482,0.457,0.961,0.915,1.429,1.385c0.442,0.444,0.87,0.901,1.299,1.357
			c0.473,0.5,0.947,0.996,1.404,1.509c0.396,0.443,0.774,0.902,1.158,1.356c0.461,0.543,0.93,1.078,1.374,1.635
			c0.002,0.002,0.004,0.004,0.006,0.006h-0.001c0.807,1.009,1.593,2.035,2.347,3.083l0.564,1.124H421.369z"/>
	</g>
</g>
<g>
</g>
<g>
</g>
<g>
</g>
<g>
</g>
<g>
</g>
<g>
</g>
<g>
</g>
<g>
</g>
<g>
</g>
<g>
</g>
<g>
</g>
<g>
</g>
<g>
</g>
<g>
</g>
<g>
</g>
</svg>
