<svg width="24" height="25" viewBox="0 0 24 25" fill="none" xmlns="http://www.w3.org/2000/svg">
<path d="M7.85612 19.2653C7.78094 19.3449 7.72217 19.4385 7.68315 19.5408C7.64414 19.643 7.62565 19.752 7.62875 19.8614C7.63184 19.9708 7.65646 20.0786 7.70119 20.1785C7.74592 20.2784 7.8099 20.3685 7.88945 20.4437C7.96901 20.5189 8.0626 20.5776 8.16488 20.6166C8.26715 20.6557 8.37611 20.6741 8.48553 20.6711C8.59494 20.668 8.70268 20.6433 8.80259 20.5986C8.90249 20.5539 8.99261 20.4899 9.06779 20.4103L16.1511 12.9103C16.2974 12.7556 16.3789 12.5508 16.3789 12.3378C16.3789 12.1249 16.2974 11.9201 16.1511 11.7653L9.06779 4.26451C8.9931 4.18321 8.90301 4.11756 8.80274 4.07137C8.70246 4.02519 8.59401 3.99938 8.48369 3.99546C8.37336 3.99154 8.26335 4.00959 8.16005 4.04854C8.05675 4.0875 7.96223 4.14658 7.88196 4.22238C7.80169 4.29818 7.73729 4.38917 7.69248 4.49006C7.64767 4.59096 7.62336 4.69975 7.62096 4.81013C7.61856 4.9205 7.63811 5.03025 7.67848 5.133C7.71885 5.23575 7.77923 5.32946 7.85612 5.40868L14.3995 12.3378L7.85612 19.2653Z" fill="white"/>
</svg>
