<svg width="16" height="16" viewBox="0 0 16 16" fill="none" xmlns="http://www.w3.org/2000/svg">
<path d="M2.15635 0.36997C1.66305 -0.123323 0.863264 -0.123323 0.36997 0.36997C-0.123323 0.863264 -0.123323 1.66305 0.36997 2.15635L6.21362 8L0.369971 13.8437C-0.123323 14.3369 -0.123323 15.1367 0.369971 15.63C0.863264 16.1233 1.66305 16.1233 2.15635 15.63L8 9.78638L13.8437 15.63C14.3369 16.1233 15.1367 16.1233 15.63 15.63C16.1233 15.1367 16.1233 14.3369 15.63 13.8437L9.78638 8L15.63 2.15635C16.1233 1.66305 16.1233 0.863264 15.63 0.36997C15.1367 -0.123323 14.3369 -0.123323 13.8437 0.36997L8 6.21362L2.15635 0.36997Z" fill="black"/>
</svg>
