<svg width="24" height="24" viewBox="0 0 24 24" fill="none" xmlns="http://www.w3.org/2000/svg">
<path d="M10.125 2C9.95924 2 9.80027 2.06585 9.68306 2.18306C9.56585 2.30027 9.5 2.45924 9.5 2.625C9.5 2.79076 9.56585 2.94973 9.68306 3.06694C9.80027 3.18415 9.95924 3.25 10.125 3.25H11.375V20.75H10.125C9.95924 20.75 9.80027 20.8158 9.68306 20.9331C9.56585 21.0503 9.5 21.2092 9.5 21.375C9.5 21.5408 9.56585 21.6997 9.68306 21.8169C9.80027 21.9342 9.95924 22 10.125 22H13.875C14.0408 22 14.1997 21.9342 14.3169 21.8169C14.4342 21.6997 14.5 21.5408 14.5 21.375C14.5 21.2092 14.4342 21.0503 14.3169 20.9331C14.1997 20.8158 14.0408 20.75 13.875 20.75H12.625V3.25H13.875C14.0408 3.25 14.1997 3.18415 14.3169 3.06694C14.4342 2.94973 14.5 2.79076 14.5 2.625C14.5 2.45924 14.4342 2.30027 14.3169 2.18306C14.1997 2.06585 14.0408 2 13.875 2H10.125ZM5.125 4.5H10.125V5.75H5.125C4.62772 5.75 4.15081 5.94754 3.79917 6.29917C3.44754 6.65081 3.25 7.12772 3.25 7.625V16.375C3.25 16.8723 3.44754 17.3492 3.79917 17.7008C4.15081 18.0525 4.62772 18.25 5.125 18.25H10.125V19.5H5.125C4.2962 19.5 3.50134 19.1708 2.91529 18.5847C2.32924 17.9987 2 17.2038 2 16.375V7.625C2 6.7962 2.32924 6.00134 2.91529 5.41529C3.50134 4.82924 4.2962 4.5 5.125 4.5ZM18.875 18.25H13.875V19.5H18.875C19.7038 19.5 20.4987 19.1708 21.0847 18.5847C21.6708 17.9987 22 17.2038 22 16.375V7.625C22 6.7962 21.6708 6.00134 21.0847 5.41529C20.4987 4.82924 19.7038 4.5 18.875 4.5H13.875V5.75H18.875C19.3723 5.75 19.8492 5.94754 20.2008 6.29917C20.5525 6.65081 20.75 7.12772 20.75 7.625V16.375C20.75 16.8723 20.5525 17.3492 20.2008 17.7008C19.8492 18.0525 19.3723 18.25 18.875 18.25Z" fill="white" fill-opacity="0.5"/>
</svg>
