<svg width="25" height="27" viewBox="0 0 25 27" fill="none" xmlns="http://www.w3.org/2000/svg">
<path fill-rule="evenodd" clip-rule="evenodd" d="M3.61483 21.2751C1.38145 19.0198 8.01086e-05 15.9042 8.01086e-05 12.4627C8.01086e-05 5.57973 5.52556 0 12.3416 0C19.1576 0 24.6831 5.57973 24.6831 12.4627C24.6831 17.1361 22.1358 21.2087 18.3667 23.3418L18.2408 23.4131C14.63 25.4572 10.0433 28.0537 6.25858 26.4192C5.77725 26.2113 5.652 25.2861 5.52769 24.3677C5.41528 23.5373 5.30363 22.7124 4.93015 22.4288C4.46509 22.0755 4.02555 21.6899 3.61483 21.2751ZM8.92796 11.3917C8.92796 10.5932 8.28064 9.94584 7.48213 9.94584C6.68361 9.94584 6.03629 10.5932 6.03629 11.3917V13.5337C6.03629 14.3322 6.68361 14.9795 7.48213 14.9795C8.28064 14.9795 8.92796 14.3322 8.92796 13.5337V11.3917ZM12.3416 8.58274C13.1401 8.58274 13.7874 9.23006 13.7874 10.0286V14.8968C13.7874 15.6953 13.1401 16.3426 12.3416 16.3426C11.543 16.3426 10.8957 15.6953 10.8957 14.8968L10.8957 10.0286C10.8957 9.23006 11.543 8.58274 12.3416 8.58274ZM18.6468 11.3917C18.6468 10.5932 17.9995 9.94584 17.201 9.94584C16.4025 9.94584 15.7551 10.5932 15.7551 11.3917V13.5337C15.7551 14.3322 16.4025 14.9795 17.201 14.9795C17.9995 14.9795 18.6468 14.3322 18.6468 13.5337V11.3917Z" fill="white"/>
</svg>
