<svg width="16" height="16" viewBox="0 0 16 16" fill="none" xmlns="http://www.w3.org/2000/svg">
<g clip-path="url(#clip0_152_1212)">
<path d="M6.8 10.5217V5.89687C6.8 5.44468 7.10345 5.04876 7.5401 4.93124L9.7401 4.3391C10.3755 4.16809 11 4.64675 11 5.30474V9.3913M6.8 10.5217V10.9565C6.8 11.5328 6.39706 12 5.9 12H5.6375C5.28542 12 5 11.6691 5 11.2609C5 10.8527 5.28542 10.5217 5.6375 10.5217H6.8ZM11 9.3913V9.82609C11 10.4024 10.5971 10.8696 10.1 10.8696H9.8375C9.48542 10.8696 9.2 10.5386 9.2 10.1304C9.2 9.72222 9.48542 9.3913 9.8375 9.3913H11Z" stroke="white"/>
</g>
<defs>
<clipPath id="clip0_152_1212">
<rect width="16" height="16" fill="white"/>
</clipPath>
</defs>
</svg>
