<svg width="26" height="27" viewBox="0 0 26 27" fill="none" xmlns="http://www.w3.org/2000/svg">
<path d="M21.7104 7.88816L15.4704 3.52233C13.7696 2.33066 11.1588 2.39566 9.52292 3.66316L4.09542 7.899C3.01208 8.744 2.15625 10.4773 2.15625 11.8423V19.3173C2.15625 22.0798 4.39875 24.3332 7.16125 24.3332H18.8396C21.6021 24.3332 23.8446 22.0907 23.8446 19.3282V11.9832C23.8446 10.5207 22.9021 8.72233 21.7104 7.88816ZM13.8129 19.9998C13.8129 20.444 13.4446 20.8123 13.0004 20.8123C12.5563 20.8123 12.1879 20.444 12.1879 19.9998V16.7498C12.1879 16.3057 12.5563 15.9373 13.0004 15.9373C13.4446 15.9373 13.8129 16.3057 13.8129 16.7498V19.9998Z" fill="white"/>
</svg>
