<svg width="17" height="19" viewBox="0 0 17 19" fill="none" xmlns="http://www.w3.org/2000/svg">
<path d="M8.456 11.088H7.772L7.472 4.932H8.756L8.456 11.088ZM7.364 12.852C7.364 12.556 7.436 12.348 7.58 12.228C7.724 12.108 7.9 12.048 8.108 12.048C8.308 12.048 8.48 12.108 8.624 12.228C8.776 12.348 8.852 12.556 8.852 12.852C8.852 13.14 8.776 13.348 8.624 13.476C8.48 13.604 8.308 13.668 8.108 13.668C7.9 13.668 7.724 13.604 7.58 13.476C7.436 13.348 7.364 13.14 7.364 12.852Z" fill="#C90202"/>
<path d="M15.8259 3.27772L15.4101 3.5555L15.4101 3.5555L15.8259 3.27772ZM15.8259 13.7223L15.4101 13.4445H15.4101L15.8259 13.7223ZM14.7223 14.8259L14.4445 14.4101V14.4101L14.7223 14.8259ZM10.5 15.4986L10.4978 14.9986C10.2225 14.9998 10 15.2233 10 15.4986H10.5ZM10.5 15.5L10.9472 15.7236C10.9819 15.6542 11 15.5776 11 15.5H10.5ZM6.5 15.5H6C6 15.5776 6.01807 15.6542 6.05279 15.7236L6.5 15.5ZM6.5 15.4986H7C7 15.2233 6.77747 14.9998 6.50218 14.9986L6.5 15.4986ZM2.27772 14.8259L2.5555 14.4101L2.5555 14.4101L2.27772 14.8259ZM1.17412 13.7223L1.58986 13.4445H1.58986L1.17412 13.7223ZM1.17412 3.27772L1.58986 3.5555L1.17412 3.27772ZM2.27772 2.17412L2.5555 2.58986L2.27772 2.17412ZM14.7223 2.17412L14.4445 2.58986V2.58986L14.7223 2.17412ZM17 8.5C17 7.10594 17.0006 6.02277 16.9132 5.16325C16.8249 4.29537 16.6427 3.60023 16.2416 2.99993L15.4101 3.5555C15.6832 3.9641 15.8381 4.47564 15.9183 5.26445C15.9994 6.06162 16 7.08513 16 8.5H17ZM16.2416 14.0001C16.6427 13.3998 16.8249 12.7046 16.9132 11.8368C17.0006 10.9772 17 9.89406 17 8.5H16C16 9.91487 15.9994 10.9384 15.9183 11.7355C15.8381 12.5244 15.6832 13.0359 15.4101 13.4445L16.2416 14.0001ZM15.0001 15.2416C15.4914 14.9133 15.9133 14.4914 16.2416 14.0001L15.4101 13.4445C15.1548 13.8267 14.8267 14.1548 14.4445 14.4101L15.0001 15.2416ZM10.5022 15.9986C11.5787 15.9939 12.4452 15.9734 13.1582 15.8749C13.8793 15.7752 14.4757 15.592 15.0001 15.2416L14.4445 14.4101C14.0875 14.6487 13.6516 14.7971 13.0213 14.8843C12.383 14.9725 11.579 14.9939 10.4978 14.9986L10.5022 15.9986ZM11 15.5V15.4986H10V15.5H11ZM9.84164 17.9348L10.9472 15.7236L10.0528 15.2764L8.94721 17.4875L9.84164 17.9348ZM7.15836 17.9348C7.71115 19.0403 9.28885 19.0403 9.84164 17.9348L8.94721 17.4875C8.76295 17.8561 8.23705 17.8561 8.05279 17.4875L7.15836 17.9348ZM6.05279 15.7236L7.15836 17.9348L8.05279 17.4875L6.94721 15.2764L6.05279 15.7236ZM6 15.4986V15.5H7V15.4986H6ZM1.99993 15.2416C2.52427 15.592 3.12069 15.7752 3.84176 15.8749C4.5548 15.9734 5.42135 15.9939 6.49782 15.9986L6.50218 14.9986C5.42095 14.9939 4.61704 14.9725 3.97869 14.8843C3.34838 14.7971 2.91252 14.6487 2.5555 14.4101L1.99993 15.2416ZM0.758387 14.0001C1.0867 14.4914 1.50858 14.9133 1.99993 15.2416L2.5555 14.4101C2.17334 14.1548 1.84521 13.8267 1.58986 13.4445L0.758387 14.0001ZM0 8.5C0 9.89406 -0.000604451 10.9772 0.0868324 11.8368C0.175119 12.7046 0.357282 13.3998 0.758387 14.0001L1.58986 13.4445C1.31684 13.0359 1.16194 12.5244 1.0817 11.7355C1.0006 10.9384 1 9.91487 1 8.5H0ZM0.758387 2.99993C0.357282 3.60023 0.175119 4.29537 0.0868324 5.16325C-0.000604451 6.02277 0 7.10594 0 8.5H1C1 7.08513 1.0006 6.06162 1.0817 5.26445C1.16194 4.47564 1.31684 3.9641 1.58986 3.5555L0.758387 2.99993ZM1.99993 1.75839C1.50858 2.0867 1.0867 2.50858 0.758387 2.99993L1.58986 3.5555C1.84521 3.17334 2.17334 2.84521 2.5555 2.58986L1.99993 1.75839ZM7.5 1C6.10594 1 5.02277 0.999396 4.16325 1.08683C3.29537 1.17512 2.60023 1.35728 1.99993 1.75839L2.5555 2.58986C2.9641 2.31684 3.47564 2.16194 4.26445 2.0817C5.06162 2.0006 6.08513 2 7.5 2V1ZM9.5 1H7.5V2H9.5V1ZM15.0001 1.75839C14.3998 1.35728 13.7046 1.17512 12.8368 1.08683C11.9772 0.999396 10.8941 1 9.5 1V2C10.9149 2 11.9384 2.0006 12.7355 2.0817C13.5244 2.16194 14.0359 2.31684 14.4445 2.58986L15.0001 1.75839ZM16.2416 2.99993C15.9133 2.50858 15.4914 2.0867 15.0001 1.75839L14.4445 2.58986C14.8267 2.84521 15.1548 3.17334 15.4101 3.5555L16.2416 2.99993Z" fill="#C90202"/>
</svg>
