<svg width="28" height="29" viewBox="0 0 28 29" fill="none" xmlns="http://www.w3.org/2000/svg">
<path d="M20.8302 25.997C19.4087 27.3162 17.8567 27.1079 16.3626 26.483C14.7816 25.8442 13.3311 25.8164 11.663 26.483C9.57425 27.344 8.47186 27.0941 7.22442 25.997C0.145935 19.0117 1.1903 8.3742 9.22613 7.98536C11.1843 8.08257 12.5478 9.013 13.6937 9.09633C15.4053 8.76303 17.0444 7.80482 18.872 7.92981C21.0623 8.09645 22.7159 8.92968 23.8038 10.4295C19.2782 13.0264 20.3515 18.734 24.5 20.331C23.6732 22.4141 22.5998 24.4833 20.8157 26.0109L20.8302 25.997ZM13.5486 7.90203C13.3311 4.8052 15.9565 2.24997 18.9736 2C19.3942 5.58288 15.5794 8.24921 13.5486 7.90203Z" fill="white"/>
</svg>
